<svg xmlns="http://www.w3.org/2000/svg" xmlns:xlink="http://www.w3.org/1999/xlink" id="Layer_1" x="0px" y="0px" viewBox="0 0 1985.48 1261.29" style="enable-background:new 0 0 1985.48 1261.29;" xml:space="preserve"><style type="text/css">	.st0{fill:none;stroke:#0C595B;stroke-miterlimit:10;}	.st1{fill:#7DBE42;}	.st2{fill:#704C9D;}	.st3{fill:#7DBE42;stroke:#7DBE42;stroke-width:3;stroke-miterlimit:10;}	.st4{fill:#704C9D;stroke:#704C9D;stroke-width:4;stroke-miterlimit:10;}	.st5{fill:#C1B1C9;}	.st6{fill:#FFFFFF;}</style><g>	<path class="st0" d="M1230.28,330.08c0,0,0,0.12,0,0.35C1230.23,330.24,1230.28,330.08,1230.28,330.08z"></path>	<g>		<g>			<path class="st1" d="M1133.24,635.51c-0.01,0.3-0.02,0.6-0.02,0.91s0.01,0.61,0.02,0.91c0.52,12.56,11.66,22.6,25.35,22.6    c11.94,0,21.95-7.64,24.65-17.93l2.57,2.57c-10.07,17.14-29.81,28.85-52.57,29.09c-0.18,0.01-0.37,0.01-0.56,0.01h-0.14    c-27.75,0-51.13-17.05-58.2-40.29V323.74h-17.95v-10.3h18.6c27.15,0,49.37-21.14,51.09-47.85h6.6v47.85h21.44v10.3h-21.44v239.85    L1133.24,635.51z"></path>			<g>				<path class="st1" d="M899.35,199.46v474.45h-58.33V207.26h-0.16c-0.45-6.59-2.22-13.15-5.44-19.3     c-5.36-10.26-13.93-17.84-24.04-22.31c-8.76-3.87-18.68-5.39-28.69-4.29c-0.18,0.02-0.37,0.04-0.56,0.06     c-6.98,0.84-13.99,2.96-20.67,6.45c-22.66,11.86-34.46,35.86-30.49,58.21c0,0,0.01,0.01,0,0.01c0.86,4.78,2.44,9.49,4.79,13.99     c4.33,8.28,10.75,14.82,18.38,19.38c-10.11-4.47-18.66-12.05-24.02-22.3c-6.78-12.97-7.14-27.72-2.21-40.98     c5.53-20.56,26.43-37.42,54.21-44.75c0.19-0.05,0.37-0.1,0.56-0.15c3.72-0.97,7.57-1.76,11.52-2.36     c6.13-0.95,12.5-1.44,19.05-1.44s12.92,0.5,19.05,1.44c2.97,0.46,5.88,1.01,8.72,1.67     C871.96,157.77,895.09,176.59,899.35,199.46z"></path>				<path class="st1" d="M782.12,263.85v1.74l-3.93,1.31c0,0-0.01,0.01-0.01,0c-8.61-0.6-16.86-3.14-24.04-7.43     C762.69,263.24,772.34,264.8,782.12,263.85z"></path>			</g>			<rect x="957.68" y="323.93" class="st1" width="58.34" height="349.74"></rect>			<path class="st1" d="M771.89,533.99c-1.17,11.67-3.39,22.93-6.59,33.61c-1.56,5.23-3.36,10.3-5.38,15.23    c-7.32,17.79-17.55,33.43-30.31,45.9c-2.09,2.05-4.24,4.01-6.47,5.88c-8.37,7.02-17.65,12.76-27.77,16.97    c-4.09,1.71-8.32,3.17-12.66,4.36c-4.47,1.22-8.96,2.13-13.46,2.74c-21.37,2.91-42.99-0.89-63.26-10.19    c-1.1-0.51-2.21-1.03-3.3-1.58c-8.16-4.01-16.07-8.91-23.64-14.64c-8.04-6.07-15.68-13.07-22.79-20.89    c-7.59-8.33-14.6-17.59-20.84-27.66c-3.61-5.82-6.96-11.91-10.04-18.25l-4.52-10.78c-3.51-8.41-5.67-17.26-8.17-26.39    c-0.16-0.57-0.31-1.13-0.47-1.71c-0.15-0.56-0.3-1.12-0.45-1.69c-0.15-0.56-0.3-1.11-0.43-1.68c-0.15-0.55-0.29-1.11-0.42-1.67    c-0.14-0.55-0.28-1.11-0.41-1.67c-0.13-0.55-0.27-1.1-0.39-1.67c-0.13-0.55-0.25-1.1-0.38-1.67c-0.12-0.56-0.24-1.11-0.36-1.68    c-0.12-0.57-0.23-1.13-0.34-1.7c-0.02-0.08-0.04-0.17-0.05-0.25c-0.01-0.05-0.01-0.11-0.03-0.16c-0.02-0.14-0.1-0.25-0.13-0.38    c-0.03-0.12-0.05-0.23-0.08-0.34c-0.05-0.24-0.11-0.48-0.16-0.71c-0.12-0.48-0.21-0.94-0.32-1.42c-0.1-0.48-0.2-0.95-0.29-1.44    c-0.1-0.48-0.19-0.97-0.28-1.45c-0.1-0.48-0.18-0.97-0.25-1.45c-0.08-0.49-0.17-0.98-0.24-1.46c-0.07-0.49-0.15-0.98-0.22-1.47    c-0.06-0.49-0.14-0.98-0.2-1.46c-0.06-0.49-0.13-0.98-0.19-1.46c-0.06-0.49-0.12-0.97-0.17-1.45c-0.06-0.48-0.12-0.97-0.16-1.44    c-0.05-0.48-0.11-0.95-0.15-1.43c-0.05-0.48-0.1-0.94-0.14-1.42c-0.04-0.47-0.08-0.92-0.12-1.39c-0.04-0.46-0.07-0.92-0.11-1.38    c-0.04-0.45-0.07-0.89-0.11-1.35c-0.02-0.43-0.05-0.87-0.08-1.32c-0.02-0.42-0.05-0.85-0.07-1.28c-0.02-0.41-0.04-0.83-0.06-1.24    c-0.02-0.4-0.04-0.81-0.06-1.21c-0.02-0.39-0.03-0.78-0.05-1.17c-0.01-0.38-0.03-0.75-0.04-1.12c-0.01-0.36-0.02-0.72-0.03-1.07    c-0.01-0.35-0.02-0.69-0.03-1.03c-0.01-0.32-0.02-0.64-0.03-0.97c0-0.3-0.01-0.6-0.01-0.91c-0.01-0.28-0.01-0.56-0.02-0.84    c0-0.27-0.01-0.53-0.01-0.78c0-0.24-0.01-0.48-0.01-0.72c0-0.21,0-0.42-0.01-0.64v-1.07c0-0.14-0.01-0.28-0.01-0.41v-0.38    c0.04,0.16-0.33-3.49,0.02-3.4c0.75-66.69,34.78-123.39,88.86-138.17c53.67-14.67,111.36,16.26,146,72.47    c-0.04,0.83-0.18,1.63-0.42,2.41c-0.39,1.29-1.05,2.49-1.91,3.53l-4.77,3.18l-8.14,5.43l-51.15,34.13l-51.14,34.14l-30.61,20.43    l-29.7,21.48l-0.48-0.42l-45.93-39.77c0.42,5.65,1.19,11.67,2.41,17.97l31.51,27.27l2.43,2.23l8.26,7.54l0.74,0.74l10.04-7.76    l54.38-38.48l51.15-34.13l51.15-34.13l19.43-12.99l1.33-0.87l22.58-15.07c-0.56-0.88-1.16-1.74-1.74-2.6    c-1.51-2.17-3.05-4.31-4.67-6.41c-9.21-12.1-19.91-22.86-31.76-32.05c-3.96-3.08-8.05-5.98-12.25-8.71    c-5.52-3.59-11.22-6.85-17.11-9.79c-8.56-4.27-17.45-7.85-26.61-10.67c-12.51-3.88-25.51-6.36-38.79-7.34    c-16.71-1.22-33.83-0.03-50.92,3.81l-15.83,4.32c-16.67,5.39-32.02,13.09-45.79,22.65c-14.89,10.32-27.93,22.82-38.77,36.89    c-2.96,3.85-5.75,7.8-8.37,11.86c-3.59,5.53-6.83,11.24-9.77,17.14c-9.47,19.03-15.53,39.83-17.58,61.37    c-0.13,1.34-0.23,2.66-0.33,3.99c-1.38,19.23,0.42,39.03,5.79,58.7l0.05,0.18c4.08,14.91,9.99,28.85,17.42,41.62    c1.85,3.2,3.8,6.33,5.83,9.39c0.59,0.87,1.19,1.75,1.79,2.61c10.23,14.71,22.57,27.62,36.49,38.39c4,3.08,8.12,6,12.38,8.74    c5.38,3.47,10.95,6.65,16.7,9.51c8.67,4.34,17.71,7.96,27.04,10.82c12.37,3.79,25.22,6.23,38.34,7.18    c19.29,1.41,39.16-0.38,58.9-5.77l0.56-0.16c19.51-5.4,37.33-13.9,53.08-24.82c14.57-10.12,27.38-22.31,38.1-36.03    c3.2-4.13,6.23-8.36,9.05-12.73c3.48-5.39,6.66-10.96,9.55-16.68c9.54-19.02,15.63-39.82,17.75-61.38L771.89,533.99z"></path>			<path class="st1" d="M1507.29,533.99c-1.17,11.67-3.39,22.93-6.59,33.61c-1.56,5.23-3.36,10.3-5.38,15.23    c-7.32,17.79-17.55,33.43-30.31,45.9c-2.09,2.05-4.24,4.01-6.47,5.88c-8.37,7.02-17.65,12.76-27.77,16.97    c-4.09,1.71-8.32,3.17-12.66,4.36c-4.47,1.22-8.96,2.13-13.46,2.74c-21.37,2.91-42.99-0.89-63.26-10.19    c-1.1-0.51-2.21-1.03-3.3-1.58c-8.16-4.01-16.07-8.91-23.64-14.64c-8.04-6.07-15.68-13.07-22.79-20.89    c-7.59-8.33-14.6-17.59-20.84-27.66c-3.61-5.82-6.96-11.91-10.04-18.25l-4.52-10.78c-3.51-8.41-5.67-17.26-8.17-26.39    c-0.16-0.57-0.31-1.13-0.47-1.71c-0.15-0.56-0.3-1.12-0.45-1.69c-0.15-0.56-0.3-1.11-0.43-1.68c-0.15-0.55-0.29-1.11-0.42-1.67    c-0.14-0.55-0.28-1.11-0.41-1.67c-0.13-0.55-0.27-1.1-0.39-1.67c-0.13-0.55-0.25-1.1-0.38-1.67c-0.12-0.56-0.24-1.11-0.36-1.68    c-0.12-0.57-0.23-1.13-0.34-1.7c-0.02-0.08-0.04-0.17-0.05-0.25c-0.01-0.05-0.01-0.11-0.03-0.16c-0.02-0.14-0.1-0.25-0.13-0.38    c-0.03-0.12-0.05-0.23-0.08-0.34c-0.05-0.24-0.11-0.48-0.16-0.71c-0.12-0.48-0.21-0.94-0.32-1.42c-0.1-0.48-0.2-0.95-0.29-1.44    c-0.1-0.48-0.19-0.97-0.28-1.45c-0.1-0.48-0.18-0.97-0.25-1.45c-0.08-0.49-0.17-0.98-0.24-1.46c-0.07-0.49-0.15-0.98-0.22-1.47    c-0.06-0.49-0.14-0.98-0.2-1.46c-0.06-0.49-0.13-0.98-0.19-1.46c-0.06-0.49-0.12-0.97-0.17-1.45c-0.06-0.48-0.12-0.97-0.16-1.44    c-0.05-0.48-0.11-0.95-0.15-1.43c-0.05-0.48-0.1-0.94-0.14-1.42c-0.04-0.47-0.08-0.92-0.12-1.39c-0.04-0.46-0.07-0.92-0.11-1.38    c-0.04-0.45-0.07-0.89-0.11-1.35c-0.02-0.43-0.05-0.87-0.08-1.32c-0.02-0.42-0.05-0.85-0.07-1.28c-0.02-0.41-0.04-0.83-0.06-1.24    c-0.02-0.4-0.04-0.81-0.06-1.21c-0.02-0.39-0.03-0.78-0.05-1.17c-0.01-0.38-0.03-0.75-0.04-1.12c-0.01-0.36-0.02-0.72-0.03-1.07    c-0.01-0.35-0.02-0.69-0.03-1.03c-0.01-0.32-0.02-0.64-0.03-0.97c0-0.3-0.01-0.6-0.01-0.91c-0.01-0.28-0.01-0.56-0.02-0.84    c0-0.27-0.01-0.53-0.01-0.78c0-0.24-0.01-0.48-0.01-0.72c0-0.21,0-0.42-0.01-0.64v-1.07c0-0.14-0.01-0.28-0.01-0.41v-0.38    c0.04,0.16-0.33-3.49,0.02-3.4c0.75-66.69,34.78-123.39,88.86-138.17c53.67-14.67,111.36,16.26,146,72.47    c-0.04,0.83-0.18,1.63-0.42,2.41c-0.39,1.29-1.05,2.49-1.91,3.53l-4.77,3.18l-8.14,5.43l-51.15,34.13l-51.14,34.14l-30.61,20.43    l-29.7,21.48l-0.48-0.42l-45.93-39.77c0.42,5.65,1.19,11.67,2.41,17.97l31.51,27.27l2.43,2.23l8.26,7.54l0.74,0.74l10.04-7.76    l54.38-38.48l51.15-34.13l51.15-34.13l19.43-12.99l1.33-0.87l22.58-15.07c-0.56-0.88-1.16-1.74-1.74-2.6    c-1.51-2.17-3.05-4.31-4.67-6.41c-9.21-12.1-19.91-22.86-31.76-32.05c-3.96-3.08-8.05-5.98-12.25-8.71    c-5.52-3.59-11.22-6.85-17.11-9.79c-8.56-4.27-17.45-7.85-26.61-10.67c-12.51-3.88-25.51-6.36-38.79-7.34    c-16.71-1.22-33.83-0.03-50.92,3.81l-15.83,4.32c-16.67,5.39-32.02,13.09-45.79,22.65c-14.89,10.32-27.93,22.82-38.77,36.89    c-2.96,3.85-5.75,7.8-8.37,11.86c-3.59,5.53-6.83,11.24-9.77,17.14c-9.47,19.03-15.53,39.83-17.58,61.37    c-0.13,1.34-0.23,2.66-0.33,3.99c-1.38,19.23,0.42,39.03,5.79,58.7l0.05,0.18c4.08,14.91,9.99,28.85,17.42,41.62    c1.85,3.2,3.8,6.33,5.83,9.39c0.59,0.87,1.19,1.75,1.79,2.61c10.23,14.71,22.57,27.62,36.49,38.39c4,3.08,8.12,6,12.38,8.74    c5.38,3.47,10.95,6.65,16.7,9.51c8.67,4.34,17.71,7.96,27.04,10.82c12.37,3.79,25.22,6.23,38.34,7.18    c19.29,1.41,39.16-0.38,58.9-5.77l0.56-0.16c19.51-5.4,37.33-13.9,53.08-24.82c14.57-10.12,27.38-22.31,38.1-36.03    c3.2-4.13,6.23-8.36,9.05-12.73c3.48-5.39,6.66-10.96,9.55-16.68c9.54-19.02,15.63-39.82,17.75-61.38L1507.29,533.99z"></path>		</g>	</g>	<g>		<g>			<path class="st2" d="M1138.9,134.26c0.25,19.16-9.39,39.48-26.94,48.46c-12.14,6.17-24.86,9.73-36.15,16.58    c-13.33,8.91-18.62,25.39-22.46,40.44c-0.92-17.37,2.8-38.79,17.84-50.57c5.73-4.65,12.8-7.6,19.17-10.03    C1116.47,169.4,1128.54,161.01,1138.9,134.26L1138.9,134.26z"></path>			<path class="st2" d="M1130.27,133.52c-0.32,2.8-0.94,5.59-1.84,8.31c-3.52,6.44-7.88,12.32-13.28,17.1    c-2.54,2.23-5.34,4.05-8.24,5.71c-6.84,3.89-13.66,6.68-21.31,9.64c-7.31,2.78-14.74,5.91-20.76,11.31    c-10.6,9.35-15.2,23.63-16.28,38.04c-0.26,0.82-0.43,1.62-0.46,2.36c0.53-17.14,3.69-36.85,15.51-49.35    c5.87-6.21,14.54-9.91,22.49-12.33c-6.18-3.15-10.73-7.53-13.67-12.32c-1.5-2.45-2.03-5.95-1.91-8.77    c0.04-1.01,0.19-2.49,0.48-3.45c0.31-1.06,0.92-1.41,1.45-2.3c0.61-1.03-0.65-1.66-0.09-2.75c0.45-0.89,2.15-0.42,2.72-0.24    c-0.41-0.15-1.41-0.57-2.11-1.22c-0.71-1.45,1.15-2.65,1.15-2.65s-0.24-2.7-0.37-3.87c-0.02-3.36,0.74-3.87,1.91-3.88    c8.12,1.53,7.68,0.11,8.54-0.46c-1.57-1.82-1.53-3.45-0.87-5.55c0.46,0.82,1.05,1.77,1.84,2.28c1.13-1.09,1.66-3.91,2.32-5.42    c0.76-1.73,1.63-3.42,2.72-4.95c1.53-2.14,3.43-3.68,5.5-5.21c0.79-0.59,1.68-1.04,2.59-1.4c7.68-3.11,17.92-1.28,24.1,4.93    C1128.94,113.69,1131.29,124.52,1130.27,133.52z"></path>			<path class="st2" d="M1004.59,58.12c0,0,11.82,6.59,20.15,20.25c2.32,4,3.77,12.16,4.3,21.85c1.41,1.02,2.39,1.49,5.24,2.47    c2.78,0.72,4.25,0.88,4.25,0.88s-2.36,2.99-7.56,2.24c2.25,4.45,4.23,6.94,7.82,11.32c4.44,5.06,6.52,7.16,6.52,7.16    s1.12,0.69-0.02,2.88c-1.2,1.82-4.59,4.67-7.48,6.38c-0.53,1.78-0.45,3.57,1.87,5.63c1.49,0.45,2.35,1.42,0.4,6.19    c-0.42,0.99-2.21,1.98-6.06,2.58c-0.5,0.02-1.11,0.02-1.11,0.02s-0.06,0.45,0.5,0.8c0.56,0.35,3.66,0.35,5.84,1.77    c1.51,1.87,2.13,3.51-0.93,6.36c-1.86,2.16-1.71,1.85-1.89,3.09s1.69,4.52,3.04,7.52c0.25,3.32-0.25,6.93-3.41,8.92    c-2.62,0.91-4.73,1.39-11.79,0.42c-4.36,0.32-7.67-0.56-13.12,3.56c-1.71,1.54-4.5,6.15-3.74,11.25    c1.79,6.2,5.33,14.85,23.47,32.36c11.84,11.84,13.38,14.31,13.38,14.31l-26.39-14.72c0,0-17.54-9.92-25.42-18.43    c-7.88-8.52-17.52-18.74-15.61-33.94c2.25-11.33,4.47-16.9,10.88-26.26c3.8-6.86,7.85-13.56,11.53-20.49    c7.88-14.86,13.6-33.71,9.58-51.06C1006.07,61.51,1004.59,58.12,1004.59,58.12z"></path>			<path class="st2" d="M1253.01,62.82c-39.38,3.74-70.32,35.02-92.68,68.56c-22.36,33.53-39.83,71.44-68.44,99.15    c-9.64,9.33-20.89,17.57-33.97,19.91c-16.81,3-34.2-4.12-49.39-13.25c-15.3-9.2-29.91-21.11-38.35-37.37    c-1.44-2.78-2.66-5.68-3.64-8.65c-2.44-7.42-3.46-15.36-2.66-23.04c0.39-3.76,1.23-7.46,2.56-10.94    c0.66-1.73,1.45-3.41,2.36-5.01c0.4-0.7,0.9-1.32,1.31-2.01c0.98-1.66,1.39-3.53,2.36-5.27c1.11-1.99,2.22-3.97,3.31-5.97    c2.18-4,4.31-8.03,6.3-12.15c3.95-8.18,7.37-16.71,9.53-25.68c4.04-16.8,3.26-35.86-5.85-50.91c1.54,0.05,3.07,0.34,4.56,0.81    v-0.22c-17.95-8.57-45.7,0.53-59.15,15.32c-15.28,16.79-25.05,43.87-22.64,67.56c2.41,23.69,11.01,46.39,19.3,68.82    c2.91,7.88,5.84,16.01,5.76,24.35c-0.08,8.33-3.88,17.02-11.14,20.08c9.53-0.54,17.86-8.75,18.96-18.69    c15.58,24.07,51.57,29.21,54.51,54.72c2.28-4.74,3.42-10.12,3.29-15.52c24.53,12.49,54.06,7.72,76.74-6.36    c22.68-14.08,39.55-36.29,54.15-59.31c15.33-24.18,28.73-49.8,45.7-72.7c16.96-22.9,38.09-43.33,64.23-53.23    c26.15-9.89,57.92-7.73,80.64,10.77C1302.18,69.38,1276.99,60.54,1253.01,62.82z"></path>		</g>	</g></g><g>	<path class="st3" d="M203.47,1001.36v7.88h-22.18v17.14h17.9v7.88h-17.9v15.91h22.18v7.96h-29.15v-56.77H203.47z"></path>	<path class="st3" d="M214.34,1058.12v-40.78h6.97l-0.01,5.66c0.55-1.02,1.3-1.96,2.23-2.83c0.81-0.71,1.84-1.36,3.1-1.95  c1.26-0.59,2.84-0.88,4.76-0.88c1.83,0,3.37,0.34,4.63,1.03c1.26,0.69,2.27,1.45,3.03,2.29c0.77,0.84,1.32,1.65,1.66,2.41  c0.34,0.77,0.51,1.22,0.51,1.38s0.17-0.13,0.51-0.84c0.34-0.71,0.94-1.53,1.79-2.45c0.85-0.92,1.98-1.78,3.38-2.6  c1.4-0.82,3.19-1.22,5.36-1.22c2.17,0,3.97,0.46,5.39,1.38c1.43,0.92,2.57,2.02,3.45,3.29c0.87,1.28,1.49,2.55,1.85,3.83  c0.36,1.28,0.54,2.27,0.54,2.98v29.3h-6.97v-25.48c0-0.66-0.18-1.36-0.55-2.1c-0.36-0.74-0.84-1.39-1.41-1.95  c-0.58-0.56-1.24-1.03-1.99-1.42c-0.75-0.38-1.53-0.57-2.34-0.57c-2.36,0-4.28,0.82-5.78,2.45c-1.5,1.63-2.25,4.08-2.25,7.34v21.73  h-6.97v-25.32c0-1.58-0.45-3.01-1.34-4.28c-0.9-1.27-2.2-1.91-3.9-1.91c-1.15,0-2.25,0.2-3.29,0.61c-1.04,0.41-1.97,1.02-2.78,1.84  c-0.81,0.82-1.45,1.84-1.92,3.06c-0.47,1.22-0.7,2.65-0.7,4.28v21.73H214.34z"></path>	<path class="st3" d="M293.35,1017.42c2.3,0,4.45,0.54,6.46,1.61c2,1.07,3.75,2.52,5.24,4.36c1.49,1.84,2.66,3.99,3.52,6.47  c0.85,2.47,1.28,5.11,1.28,7.92c0,2.81-0.43,5.44-1.28,7.92c-0.85,2.47-2.02,4.63-3.52,6.46c-1.49,1.84-3.24,3.29-5.24,4.36  c-2,1.07-4.16,1.61-6.46,1.61c-2.05,0-3.97-0.43-5.79-1.3c-1.81-0.87-3.44-2.07-4.89-3.6v21.57h-6.97v-57.46h6.97v4.9  c1.45-1.48,3.08-2.65,4.89-3.52C289.38,1017.86,291.3,1017.42,293.35,1017.42z M292.39,1049.63c1.32,0,2.57-0.32,3.74-0.96  c1.17-0.64,2.19-1.49,3.07-2.56c0.87-1.07,1.57-2.33,2.08-3.79c0.51-1.45,0.77-3,0.77-4.63c0-1.68-0.26-3.25-0.77-4.7  c-0.51-1.45-1.2-2.72-2.08-3.79c-0.87-1.07-1.9-1.91-3.07-2.53c-1.17-0.61-2.42-0.92-3.74-0.92c-1.36,0-2.63,0.31-3.8,0.92  c-1.17,0.61-2.2,1.45-3.07,2.53c-0.87,1.07-1.57,2.33-2.08,3.79c-0.51,1.45-0.77,3.02-0.77,4.7c0,1.63,0.26,3.17,0.77,4.63  c0.51,1.45,1.2,2.72,2.08,3.79c0.87,1.07,1.9,1.93,3.07,2.56C289.76,1049.31,291.03,1049.63,292.39,1049.63z"></path>	<path class="st3" d="M336.5,1017.35c2.34,0,4.55,0.54,6.62,1.61c2.07,1.07,3.87,2.52,5.4,4.36c1.53,1.84,2.75,4,3.64,6.5  c0.9,2.5,1.34,5.15,1.34,7.96c0,2.81-0.45,5.44-1.34,7.92c-0.89,2.47-2.11,4.63-3.64,6.46c-1.53,1.84-3.33,3.29-5.4,4.36  c-2.07,1.07-4.27,1.61-6.62,1.61c-2.34,0-4.55-0.54-6.62-1.61c-2.07-1.07-3.88-2.52-5.43-4.36c-1.56-1.84-2.78-3.99-3.68-6.46  c-0.9-2.47-1.34-5.11-1.34-7.92c0-2.8,0.45-5.46,1.34-7.96c0.9-2.5,2.12-4.67,3.68-6.5c1.56-1.84,3.37-3.29,5.43-4.36  C331.95,1017.88,334.15,1017.35,336.5,1017.35z M336.5,1050.17c1.45,0,2.8-0.32,4.06-0.96c1.26-0.64,2.35-1.52,3.29-2.64  c0.94-1.12,1.68-2.44,2.24-3.94c0.55-1.5,0.83-3.12,0.83-4.86c0-1.73-0.28-3.35-0.83-4.86c-0.55-1.5-1.3-2.82-2.24-3.94  c-0.94-1.12-2.04-2.01-3.29-2.68c-1.26-0.66-2.61-0.99-4.06-0.99c-1.45,0-2.8,0.33-4.06,0.99c-1.26,0.66-2.36,1.56-3.29,2.68  c-0.94,1.12-1.68,2.44-2.24,3.94c-0.55,1.5-0.83,3.12-0.83,4.86c0,1.73,0.28,3.35,0.83,4.86c0.55,1.51,1.3,2.82,2.24,3.94  c0.94,1.12,2.03,2,3.29,2.64C333.7,1049.85,335.05,1050.17,336.5,1050.17z"></path>	<path class="st3" d="M393.77,1058.05L387,1041.9l-6.78,16.14l-17.13-40.78h8.31l8.82,21.42l6.78-16.45l4.09,9.95l2.68,6.5  l8.82-21.42h8.31L393.77,1058.05z"></path>	<path class="st3" d="M436.99,1017.27c2.39,0,4.41,0.42,6.07,1.26c1.66,0.84,3.05,1.9,4.16,3.17c1.11,1.28,1.99,2.69,2.65,4.25  c0.66,1.56,1.15,3.05,1.47,4.48c0.32,1.43,0.51,2.69,0.58,3.79c0.06,1.1,0.1,1.85,0.1,2.26v3.98h-24.55c0,0.56,0.17,1.35,0.51,2.39  c0.34,1.04,0.88,2.07,1.63,3.11c0.74,1.04,1.73,1.94,2.94,2.69c1.21,0.76,2.69,1.14,4.44,1.14c1.79,0,3.4-0.2,4.83-0.61  c1.43-0.41,2.67-0.87,3.74-1.38c1.24-0.56,2.34-1.22,3.32-1.99v8.53c-0.34,0.46-0.97,0.93-1.89,1.39c-0.92,0.46-1.97,0.86-3.16,1.2  c-1.19,0.33-2.41,0.62-3.64,0.85c-1.24,0.23-2.3,0.35-3.2,0.35c-0.47,0-1.2-0.08-2.21-0.23c-1-0.15-2.12-0.5-3.36-1.03  c-1.24-0.54-2.49-1.29-3.77-2.26c-1.28-0.97-2.45-2.24-3.52-3.83c-1.07-1.58-1.94-3.53-2.62-5.85c-0.68-2.32-1.02-5.11-1.02-8.38  c0-2.24,0.37-4.51,1.12-6.81c0.74-2.29,1.82-4.36,3.23-6.2c1.41-1.84,3.13-3.34,5.18-4.51  C432.07,1017.86,434.39,1017.27,436.99,1017.27z M445.04,1033.64c-0.17-1.73-0.58-3.26-1.21-4.59c-0.55-1.17-1.35-2.24-2.4-3.21  c-1.04-0.97-2.5-1.45-4.38-1.45c-1.88,0-3.43,0.37-4.67,1.11c-1.24,0.74-2.22,1.61-2.94,2.6c-0.73,0.99-1.24,2.02-1.53,3.06  c-0.3,1.05-0.45,1.87-0.45,2.49H445.04z"></path>	<path class="st3" d="M465.18,1017.35h6.97v5.05c0.6-0.92,1.45-1.76,2.56-2.53c0.94-0.61,2.17-1.19,3.71-1.72  c1.53-0.54,3.45-0.8,5.75-0.8v8.34c-1.15,0-2.43,0.13-3.84,0.38c-1.41,0.26-2.72,0.68-3.93,1.26c-1.21,0.59-2.23,1.37-3.04,2.33  c-0.81,0.97-1.21,2.17-1.21,3.6v24.86h-6.97V1017.35z"></path>	<path class="st3" d="M500.72,1010.54h-6.97v-9.18h6.97V1010.54z M493.75,1017.35h6.97v40.78h-6.97V1017.35z"></path>	<path class="st3" d="M512.86,1058.12v-40.78h6.97l-0.06,5.66c0.55-1.02,1.3-1.96,2.24-2.83c0.81-0.71,1.84-1.36,3.1-1.95  c1.26-0.59,2.84-0.88,4.76-0.88c2.39,0,4.29,0.45,5.72,1.34c1.43,0.89,2.51,2.09,3.26,3.6c0.75,1.51,1.24,3.21,1.47,5.13  c0.23,1.91,0.35,3.89,0.35,5.93v24.79h-6.97v-25.32c0-1.58-0.45-3.01-1.34-4.28c-0.89-1.27-2.19-1.91-3.88-1.91  c-1.15,0-2.24,0.2-3.28,0.61c-1.04,0.41-1.95,1.02-2.74,1.84c-0.79,0.82-1.42,1.84-1.91,3.06c-0.49,1.22-0.73,2.65-0.73,4.28v21.73  H512.86z"></path>	<path class="st3" d="M583.95,1019.64v38.56c0,1.78-0.21,3.65-0.64,5.58c-0.43,1.94-1.26,3.72-2.49,5.36  c-1.24,1.63-2.96,2.98-5.18,4.05c-2.22,1.07-5.14,1.61-8.76,1.61c-2.47,0-4.5-0.17-6.07-0.5c-1.58-0.33-2.86-0.7-3.84-1.11  c-1.11-0.51-1.98-1.07-2.62-1.68v-8.26c0.9,0.56,1.96,1.07,3.2,1.53c1.06,0.41,2.38,0.76,3.93,1.07c1.56,0.31,3.36,0.46,5.4,0.46  c2.05,0,3.72-0.26,5.02-0.77c1.3-0.51,2.33-1.16,3.1-1.95c0.77-0.79,1.29-1.68,1.57-2.68c0.28-0.99,0.42-1.98,0.42-2.95v-4.67  c-1.36,1.48-2.89,2.65-4.57,3.52c-1.68,0.87-3.48,1.3-5.4,1.3c-2.13,0-4.13-0.54-6.01-1.61c-1.88-1.07-3.52-2.52-4.92-4.36  c-1.41-1.84-2.52-3.99-3.32-6.46c-0.81-2.47-1.21-5.11-1.21-7.92c0-2.8,0.4-5.46,1.21-7.96c0.81-2.5,1.92-4.67,3.32-6.5  c1.41-1.84,3.05-3.29,4.92-4.36c1.87-1.07,3.88-1.61,6.01-1.61c1.92,0,3.72,0.43,5.4,1.3c1.68,0.87,3.21,2.07,4.57,3.6v-2.6H583.95  z M567.9,1049.63c1.19,0,2.33-0.29,3.42-0.88c1.09-0.59,2.05-1.4,2.88-2.45c0.83-1.04,1.49-2.26,1.98-3.63  c0.49-1.38,0.76-2.86,0.8-4.44v-1.15c-0.04-1.58-0.31-3.06-0.8-4.44c-0.49-1.38-1.15-2.59-1.98-3.63  c-0.83-1.04-1.79-1.86-2.88-2.45c-1.09-0.59-2.23-0.88-3.42-0.88c-1.24,0-2.41,0.32-3.52,0.96c-1.11,0.64-2.08,1.49-2.91,2.56  c-0.83,1.07-1.48,2.33-1.95,3.79c-0.47,1.45-0.7,3-0.7,4.63c0,1.68,0.23,3.25,0.7,4.7c0.47,1.45,1.12,2.72,1.95,3.79  c0.83,1.07,1.8,1.93,2.91,2.56C565.5,1049.31,566.67,1049.63,567.9,1049.63z"></path>	<path class="st3" d="M684.69,1001.36h7.93l-20.2,56.77l-7.42-20.27l-7.16,20.27L637,1001.36h7.86l12.98,34.28l3.13-8.88  l-8.44-23.18h7.86l12.02,32.06L684.69,1001.36z"></path>	<path class="st3" d="M719.27,1017.35c2.34,0,4.55,0.54,6.62,1.61c2.07,1.07,3.87,2.52,5.4,4.36c1.53,1.84,2.75,4,3.64,6.5  c0.9,2.5,1.34,5.15,1.34,7.96c0,2.81-0.45,5.44-1.34,7.92c-0.89,2.47-2.11,4.63-3.64,6.46c-1.53,1.84-3.33,3.29-5.4,4.36  c-2.07,1.07-4.27,1.61-6.62,1.61c-2.34,0-4.55-0.54-6.62-1.61c-2.07-1.07-3.88-2.52-5.43-4.36c-1.56-1.84-2.78-3.99-3.68-6.46  c-0.9-2.47-1.34-5.11-1.34-7.92c0-2.8,0.45-5.46,1.34-7.96c0.9-2.5,2.12-4.67,3.68-6.5c1.56-1.84,3.37-3.29,5.43-4.36  C714.73,1017.88,716.93,1017.35,719.27,1017.35z M719.27,1050.17c1.45,0,2.8-0.32,4.06-0.96c1.26-0.64,2.35-1.52,3.29-2.64  c0.94-1.12,1.68-2.44,2.24-3.94c0.55-1.5,0.83-3.12,0.83-4.86c0-1.73-0.28-3.35-0.83-4.86c-0.55-1.5-1.3-2.82-2.24-3.94  c-0.94-1.12-2.04-2.01-3.29-2.68c-1.26-0.66-2.61-0.99-4.06-0.99c-1.45,0-2.8,0.33-4.06,0.99c-1.26,0.66-2.36,1.56-3.29,2.68  c-0.94,1.12-1.68,2.44-2.24,3.94c-0.55,1.5-0.83,3.12-0.83,4.86c0,1.73,0.28,3.35,0.83,4.86c0.55,1.51,1.3,2.82,2.24,3.94  c0.94,1.12,2.03,2,3.29,2.64C716.47,1049.85,717.83,1050.17,719.27,1050.17z"></path>	<path class="st3" d="M747.15,1058.12v-40.78h6.97l-0.01,5.66c0.55-1.02,1.3-1.96,2.23-2.83c0.81-0.71,1.84-1.36,3.1-1.95  c1.26-0.59,2.84-0.88,4.76-0.88c1.83,0,3.37,0.34,4.63,1.03c1.26,0.69,2.27,1.45,3.03,2.29c0.77,0.84,1.32,1.65,1.66,2.41  c0.34,0.77,0.51,1.22,0.51,1.38s0.17-0.13,0.51-0.84c0.34-0.71,0.94-1.53,1.79-2.45c0.85-0.92,1.98-1.78,3.38-2.6  c1.4-0.82,3.19-1.22,5.36-1.22c2.17,0,3.97,0.46,5.39,1.38c1.43,0.92,2.57,2.02,3.45,3.29c0.87,1.28,1.49,2.55,1.85,3.83  c0.36,1.28,0.54,2.27,0.54,2.98v29.3h-6.97v-25.48c0-0.66-0.18-1.36-0.55-2.1c-0.36-0.74-0.84-1.39-1.41-1.95  c-0.58-0.56-1.24-1.03-1.99-1.42c-0.75-0.38-1.53-0.57-2.34-0.57c-2.36,0-4.28,0.82-5.78,2.45c-1.5,1.63-2.25,4.08-2.25,7.34v21.73  h-6.97v-25.32c0-1.58-0.45-3.01-1.34-4.28c-0.9-1.27-2.2-1.91-3.9-1.91c-1.15,0-2.25,0.2-3.29,0.61c-1.04,0.41-1.97,1.02-2.78,1.84  c-0.81,0.82-1.45,1.84-1.92,3.06c-0.47,1.22-0.7,2.65-0.7,4.28v21.73H747.15z"></path>	<path class="st3" d="M823.73,1017.27c2.39,0,4.41,0.42,6.07,1.26c1.66,0.84,3.05,1.9,4.16,3.17c1.11,1.28,1.99,2.69,2.65,4.25  c0.66,1.56,1.15,3.05,1.47,4.48c0.32,1.43,0.51,2.69,0.58,3.79c0.06,1.1,0.1,1.85,0.1,2.26v3.98H814.2c0,0.56,0.17,1.35,0.51,2.39  c0.34,1.04,0.88,2.07,1.63,3.11c0.74,1.04,1.73,1.94,2.94,2.69c1.21,0.76,2.69,1.14,4.44,1.14c1.79,0,3.4-0.2,4.83-0.61  c1.43-0.41,2.67-0.87,3.74-1.38c1.24-0.56,2.34-1.22,3.32-1.99v8.53c-0.34,0.46-0.97,0.93-1.89,1.39c-0.92,0.46-1.97,0.86-3.16,1.2  c-1.19,0.33-2.41,0.62-3.64,0.85c-1.24,0.23-2.3,0.35-3.2,0.35c-0.47,0-1.2-0.08-2.21-0.23c-1-0.15-2.12-0.5-3.36-1.03  c-1.24-0.54-2.49-1.29-3.77-2.26c-1.28-0.97-2.45-2.24-3.52-3.83c-1.07-1.58-1.94-3.53-2.62-5.85c-0.68-2.32-1.02-5.11-1.02-8.38  c0-2.24,0.37-4.51,1.12-6.81c0.74-2.29,1.82-4.36,3.23-6.2c1.41-1.84,3.13-3.34,5.18-4.51  C818.8,1017.86,821.13,1017.27,823.73,1017.27z M831.78,1033.64c-0.17-1.73-0.58-3.26-1.21-4.59c-0.55-1.17-1.35-2.24-2.4-3.21  c-1.04-0.97-2.5-1.45-4.38-1.45c-1.88,0-3.43,0.37-4.67,1.11c-1.24,0.74-2.22,1.61-2.94,2.6c-0.73,0.99-1.24,2.02-1.53,3.06  c-0.3,1.05-0.45,1.87-0.45,2.49H831.78z"></path>	<path class="st3" d="M850.96,1058.12v-40.78h6.97l-0.06,5.66c0.55-1.02,1.3-1.96,2.24-2.83c0.81-0.71,1.84-1.36,3.1-1.95  c1.26-0.59,2.84-0.88,4.76-0.88c2.39,0,4.29,0.45,5.72,1.34c1.43,0.89,2.51,2.09,3.26,3.6c0.75,1.51,1.24,3.21,1.47,5.13  c0.23,1.91,0.35,3.89,0.35,5.93v24.79h-6.97v-25.32c0-1.58-0.45-3.01-1.34-4.28c-0.89-1.27-2.19-1.91-3.88-1.91  c-1.15,0-2.24,0.2-3.28,0.61c-1.04,0.41-1.95,1.02-2.74,1.84c-0.79,0.82-1.42,1.84-1.91,3.06c-0.49,1.22-0.73,2.65-0.73,4.28v21.73  H850.96z"></path>	<path class="st3" d="M965.77,1058.12l-2.75-7.73h-22.05l-2.75,7.73h-7.03l20.84-56.77l20.84,56.77H965.77z M943.97,1042.06h16.05  l-7.99-22.42L943.97,1042.06z"></path>	<path class="st3" d="M983.73,1058.12v-40.78h6.97l-0.06,5.66c0.55-1.02,1.3-1.96,2.24-2.83c0.81-0.71,1.84-1.36,3.1-1.95  c1.26-0.59,2.84-0.88,4.76-0.88c2.39,0,4.29,0.45,5.72,1.34c1.43,0.89,2.51,2.09,3.26,3.6c0.75,1.51,1.24,3.21,1.47,5.13  c0.23,1.91,0.35,3.89,0.35,5.93v24.79h-6.97v-25.32c0-1.58-0.45-3.01-1.34-4.28c-0.89-1.27-2.19-1.91-3.88-1.91  c-1.15,0-2.24,0.2-3.28,0.61c-1.04,0.41-1.95,1.02-2.74,1.84c-0.78,0.82-1.42,1.84-1.91,3.06c-0.49,1.22-0.73,2.65-0.73,4.28v21.73  H983.73z"></path>	<path class="st3" d="M1056.79,1001.36v56.77h-6.97v-6.04c-1.41,2.27-3.13,4.08-5.18,5.42c-2.05,1.34-4.28,2.01-6.71,2.01  c-2.13,0-4.15-0.55-6.04-1.64c-1.9-1.1-3.55-2.6-4.95-4.51c-1.41-1.91-2.51-4.14-3.32-6.68c-0.81-2.55-1.21-5.27-1.21-8.17  c0-2.9,0.4-5.62,1.21-8.17c0.81-2.55,1.92-4.77,3.32-6.68c1.41-1.91,3.06-3.41,4.95-4.51c1.9-1.09,3.91-1.64,6.04-1.64  c2.43,0,4.67,0.68,6.71,2.03c2.05,1.35,3.77,3.17,5.18,5.47v-23.64H1056.79z M1039.73,1051.16c1.41,0,2.72-0.33,3.93-0.99  c1.21-0.66,2.28-1.57,3.2-2.72c0.92-1.15,1.64-2.47,2.17-3.98c0.53-1.5,0.8-3.12,0.8-4.86c0-1.73-0.27-3.35-0.8-4.86  c-0.53-1.5-1.26-2.82-2.17-3.94c-0.92-1.12-1.98-2.01-3.2-2.68c-1.21-0.66-2.53-0.99-3.93-0.99s-2.72,0.33-3.93,0.99  c-1.21,0.66-2.28,1.56-3.2,2.68c-0.92,1.12-1.64,2.44-2.17,3.94c-0.53,1.51-0.8,3.12-0.8,4.86c0,1.73,0.27,3.35,0.8,4.86  c0.53,1.51,1.26,2.83,2.17,3.98c0.92,1.15,1.98,2.05,3.2,2.72C1037.01,1050.83,1038.32,1051.16,1039.73,1051.16z"></path>	<path class="st3" d="M1145.97,1053.3c-2.09,1.48-3.93,2.58-5.53,3.29c-1.6,0.71-3.29,1.17-5.08,1.38  c-3.54,0.46-6.88,0.01-10.04-1.34c-3.15-1.35-5.93-3.33-8.32-5.93c-2.39-2.6-4.29-5.7-5.69-9.3c-1.4-3.6-2.1-7.43-2.1-11.51  c0-3.98,0.63-7.75,1.9-11.32c1.27-3.57,3.05-6.68,5.34-9.33c2.29-2.65,5-4.68,8.13-6.08c3.13-1.4,6.59-1.95,10.39-1.65  c1.49,0.1,2.91,0.4,4.25,0.88c1.34,0.49,2.57,1.06,3.68,1.72l-3.07,7.34c-1.41-0.76-2.6-1.25-3.58-1.45  c-0.98-0.2-2.09-0.31-3.32-0.31c-2.22,0-4.34,0.55-6.36,1.65c-2.02,1.1-3.8,2.56-5.34,4.4c-1.53,1.84-2.76,3.97-3.68,6.39  c-0.92,2.42-1.37,4.96-1.37,7.61c0,2.7,0.47,5.27,1.41,7.69c0.94,2.42,2.18,4.55,3.74,6.39c1.56,1.84,3.33,3.3,5.34,4.4  c2,1.1,4.09,1.64,6.26,1.64c0.81,0,1.57-0.04,2.27-0.11c0.7-0.08,1.41-0.23,2.11-0.46c0.7-0.23,1.43-0.55,2.17-0.96  c0.74-0.41,1.59-0.94,2.53-1.61L1145.97,1053.3z"></path>	<path class="st3" d="M1190.97,1019.64v38.48H1184v-5.51c-1.49,2.29-3.3,4.13-5.43,5.51c-2.13,1.38-4.43,2.07-6.9,2.07  c-2.22,0-4.3-0.56-6.26-1.68c-1.96-1.12-3.68-2.65-5.15-4.59c-1.47-1.94-2.63-4.2-3.48-6.77c-0.85-2.57-1.28-5.34-1.28-8.3  c0-2.96,0.43-5.72,1.28-8.3c0.85-2.58,2.01-4.83,3.48-6.77c1.47-1.94,3.19-3.47,5.15-4.59c1.96-1.12,4.05-1.68,6.26-1.68  c2.47,0,4.77,0.68,6.9,2.03s3.94,3.2,5.43,5.55v-5.43H1190.97z M1173.52,1051.62c1.45,0,2.81-0.33,4.09-0.99  c1.28-0.66,2.39-1.57,3.32-2.72c0.94-1.15,1.68-2.49,2.24-4.02c0.55-1.53,0.83-3.19,0.83-4.97c0-1.73-0.28-3.38-0.83-4.94  c-0.55-1.56-1.3-2.91-2.24-4.05c-0.94-1.15-2.05-2.05-3.32-2.72c-1.28-0.66-2.64-0.99-4.09-0.99c-1.45,0-2.81,0.33-4.09,0.99  c-1.28,0.66-2.4,1.57-3.36,2.72c-0.96,1.15-1.72,2.5-2.27,4.05c-0.55,1.56-0.83,3.2-0.83,4.94c0,1.79,0.28,3.44,0.83,4.97  c0.55,1.53,1.31,2.87,2.27,4.02c0.96,1.15,2.08,2.05,3.36,2.72C1170.71,1051.29,1172.07,1051.62,1173.52,1051.62z"></path>	<path class="st3" d="M1204.07,1017.35h6.97v5.05c0.6-0.92,1.45-1.76,2.56-2.53c0.94-0.61,2.17-1.19,3.71-1.72  c1.53-0.54,3.45-0.8,5.75-0.8v8.34c-1.15,0-2.43,0.13-3.83,0.38c-1.41,0.26-2.72,0.68-3.93,1.26c-1.21,0.59-2.23,1.37-3.04,2.33  c-0.81,0.97-1.21,2.17-1.21,3.6v24.86h-6.97V1017.35z"></path>	<path class="st3" d="M1239.61,1010.54h-6.97v-9.18h6.97V1010.54z M1232.65,1017.35h6.97v40.78h-6.97V1017.35z"></path>	<path class="st3" d="M1251.76,1058.12v-40.78h6.97l-0.06,5.66c0.55-1.02,1.3-1.96,2.24-2.83c0.81-0.71,1.84-1.36,3.1-1.95  c1.26-0.59,2.84-0.88,4.76-0.88c2.39,0,4.29,0.45,5.72,1.34c1.43,0.89,2.51,2.09,3.26,3.6c0.75,1.51,1.24,3.21,1.47,5.13  c0.23,1.91,0.35,3.89,0.35,5.93v24.79h-6.97v-25.32c0-1.58-0.45-3.01-1.34-4.28c-0.89-1.27-2.19-1.91-3.88-1.91  c-1.15,0-2.24,0.2-3.28,0.61c-1.04,0.41-1.95,1.02-2.74,1.84c-0.78,0.82-1.42,1.84-1.91,3.06c-0.49,1.22-0.73,2.65-0.73,4.28v21.73  H1251.76z"></path>	<path class="st3" d="M1322.84,1019.64v38.56c0,1.78-0.21,3.65-0.64,5.58c-0.43,1.94-1.26,3.72-2.49,5.36  c-1.24,1.63-2.96,2.98-5.18,4.05c-2.22,1.07-5.14,1.61-8.76,1.61c-2.47,0-4.5-0.17-6.07-0.5c-1.58-0.33-2.86-0.7-3.84-1.11  c-1.11-0.51-1.98-1.07-2.62-1.68v-8.26c0.9,0.56,1.96,1.07,3.2,1.53c1.06,0.41,2.37,0.76,3.93,1.07c1.56,0.31,3.36,0.46,5.4,0.46  c2.05,0,3.72-0.26,5.02-0.77c1.3-0.51,2.33-1.16,3.1-1.95c0.77-0.79,1.29-1.68,1.57-2.68c0.28-0.99,0.42-1.98,0.42-2.95v-4.67  c-1.36,1.48-2.89,2.65-4.57,3.52c-1.68,0.87-3.48,1.3-5.4,1.3c-2.13,0-4.13-0.54-6.01-1.61c-1.88-1.07-3.52-2.52-4.92-4.36  c-1.41-1.84-2.51-3.99-3.32-6.46c-0.81-2.47-1.21-5.11-1.21-7.92c0-2.8,0.4-5.46,1.21-7.96c0.81-2.5,1.92-4.67,3.32-6.5  c1.41-1.84,3.05-3.29,4.92-4.36c1.87-1.07,3.88-1.61,6.01-1.61c1.92,0,3.72,0.43,5.4,1.3c1.68,0.87,3.21,2.07,4.57,3.6v-2.6  H1322.84z M1306.8,1049.63c1.19,0,2.33-0.29,3.42-0.88c1.09-0.59,2.05-1.4,2.88-2.45c0.83-1.04,1.49-2.26,1.98-3.63  c0.49-1.38,0.76-2.86,0.8-4.44v-1.15c-0.04-1.58-0.31-3.06-0.8-4.44c-0.49-1.38-1.15-2.59-1.98-3.63  c-0.83-1.04-1.79-1.86-2.88-2.45c-1.09-0.59-2.23-0.88-3.42-0.88c-1.24,0-2.41,0.32-3.52,0.96c-1.11,0.64-2.08,1.49-2.91,2.56  c-0.83,1.07-1.48,2.33-1.95,3.79c-0.47,1.45-0.7,3-0.7,4.63c0,1.68,0.23,3.25,0.7,4.7c0.47,1.45,1.12,2.72,1.95,3.79  c0.83,1.07,1.8,1.93,2.91,2.56C1304.39,1049.31,1305.56,1049.63,1306.8,1049.63z"></path>	<path class="st3" d="M1391.85,1009.69c-1,0.15-1.76,0.42-2.27,0.8c-0.51,0.38-0.84,0.91-0.99,1.57c-0.15,0.66-0.22,1.5-0.22,2.52  v4.06h7.61v8.34h-7.61v31.14h-6.97v-31.14h-5.5v-8.34h5.43v-4.21c0-3.21,0.51-5.69,1.53-7.42c1.02-1.73,2.28-3,3.77-3.79  c1.49-0.79,3.08-1.26,4.76-1.42c1.68-0.15,3.21-0.23,4.57-0.23v7.88C1394.22,1009.47,1392.85,1009.54,1391.85,1009.69z"></path>	<path class="st3" d="M1423.91,1017.35c2.34,0,4.55,0.54,6.62,1.61c2.07,1.07,3.87,2.52,5.4,4.36c1.53,1.84,2.75,4,3.64,6.5  c0.9,2.5,1.34,5.15,1.34,7.96c0,2.81-0.45,5.44-1.34,7.92c-0.9,2.47-2.11,4.63-3.64,6.46c-1.53,1.84-3.33,3.29-5.4,4.36  c-2.07,1.07-4.27,1.61-6.62,1.61s-4.55-0.54-6.62-1.61c-2.07-1.07-3.88-2.52-5.43-4.36c-1.56-1.84-2.78-3.99-3.68-6.46  c-0.89-2.47-1.34-5.11-1.34-7.92c0-2.8,0.45-5.46,1.34-7.96c0.9-2.5,2.12-4.67,3.68-6.5c1.56-1.84,3.37-3.29,5.43-4.36  C1419.36,1017.88,1421.56,1017.35,1423.91,1017.35z M1423.91,1050.17c1.45,0,2.8-0.32,4.06-0.96c1.26-0.64,2.35-1.52,3.29-2.64  c0.94-1.12,1.68-2.44,2.24-3.94c0.55-1.5,0.83-3.12,0.83-4.86c0-1.73-0.28-3.35-0.83-4.86c-0.55-1.5-1.3-2.82-2.24-3.94  c-0.94-1.12-2.04-2.01-3.29-2.68c-1.26-0.66-2.61-0.99-4.06-0.99c-1.45,0-2.8,0.33-4.06,0.99c-1.26,0.66-2.36,1.56-3.29,2.68  c-0.94,1.12-1.68,2.44-2.24,3.94c-0.55,1.5-0.83,3.12-0.83,4.86c0,1.73,0.28,3.35,0.83,4.86c0.55,1.51,1.3,2.82,2.24,3.94  c0.94,1.12,2.03,2,3.29,2.64C1421.1,1049.85,1422.46,1050.17,1423.91,1050.17z"></path>	<path class="st3" d="M1452.74,1017.35h6.97v5.05c0.6-0.92,1.45-1.76,2.56-2.53c0.94-0.61,2.17-1.19,3.71-1.72  c1.53-0.54,3.45-0.8,5.75-0.8v8.34c-1.15,0-2.43,0.13-3.83,0.38c-1.41,0.26-2.72,0.68-3.93,1.26c-1.21,0.59-2.23,1.37-3.04,2.33  c-0.81,0.97-1.21,2.17-1.21,3.6v24.86h-6.97V1017.35z"></path>	<path class="st3" d="M1559.62,1053.3c-2.09,1.48-3.93,2.58-5.53,3.29c-1.6,0.71-3.29,1.17-5.08,1.38  c-3.54,0.46-6.88,0.01-10.04-1.34c-3.15-1.35-5.93-3.33-8.32-5.93c-2.39-2.6-4.29-5.7-5.69-9.3c-1.4-3.6-2.1-7.43-2.1-11.51  c0-3.98,0.63-7.75,1.9-11.32c1.27-3.57,3.05-6.68,5.34-9.33c2.29-2.65,5-4.68,8.13-6.08c3.13-1.4,6.59-1.95,10.39-1.65  c1.49,0.1,2.91,0.4,4.25,0.88c1.34,0.49,2.57,1.06,3.68,1.72l-3.07,7.34c-1.41-0.76-2.6-1.25-3.58-1.45  c-0.98-0.2-2.09-0.31-3.32-0.31c-2.22,0-4.34,0.55-6.36,1.65c-2.02,1.1-3.8,2.56-5.34,4.4s-2.76,3.97-3.68,6.39  c-0.92,2.42-1.37,4.96-1.37,7.61c0,2.7,0.47,5.27,1.41,7.69c0.94,2.42,2.18,4.55,3.74,6.39c1.56,1.84,3.33,3.3,5.34,4.4  c2,1.1,4.09,1.64,6.26,1.64c0.81,0,1.57-0.04,2.27-0.11c0.7-0.08,1.41-0.23,2.11-0.46c0.7-0.23,1.43-0.55,2.17-0.96  c0.74-0.41,1.59-0.94,2.53-1.61L1559.62,1053.3z"></path>	<path class="st3" d="M1577.45,1042.13v15.99h-7.03v-56.77h6.97v25.02c0.55-1.68,1.32-3.19,2.3-4.51c0.85-1.17,1.95-2.23,3.29-3.18  c1.34-0.94,3.04-1.42,5.08-1.42c1.45,0,2.85,0.33,4.22,0.99c1.36,0.66,2.56,1.59,3.58,2.79c1.02,1.2,1.84,2.61,2.46,4.25  c0.62,1.63,0.93,3.44,0.93,5.43v27.39h-6.97v-23.03c0-1.17-0.1-2.28-0.29-3.33c-0.19-1.04-0.51-1.98-0.95-2.79  c-0.45-0.82-1.04-1.45-1.78-1.91c-0.74-0.46-1.64-0.69-2.7-0.69c-0.89,0-1.87,0.41-2.93,1.22c-1.06,0.82-2.05,1.94-2.96,3.37  c-0.91,1.43-1.68,3.1-2.29,5.01C1577.76,1037.89,1577.45,1039.94,1577.45,1042.13z"></path>	<path class="st3" d="M1616.38,1010.54h-6.97v-9.18h6.97V1010.54z M1609.41,1017.35h6.97v40.78h-6.97V1017.35z"></path>	<path class="st3" d="M1627.25,1058.12v-56.77h6.97v56.77H1627.25z"></path>	<path class="st3" d="M1679.47,1001.36v56.77h-6.97v-6.04c-1.41,2.27-3.13,4.08-5.18,5.42c-2.05,1.34-4.28,2.01-6.71,2.01  c-2.13,0-4.15-0.55-6.04-1.64c-1.9-1.1-3.55-2.6-4.95-4.51c-1.41-1.91-2.51-4.14-3.32-6.68c-0.81-2.55-1.21-5.27-1.21-8.17  c0-2.9,0.4-5.62,1.21-8.17c0.81-2.55,1.92-4.77,3.32-6.68c1.41-1.91,3.06-3.41,4.95-4.51c1.9-1.09,3.91-1.64,6.04-1.64  c2.43,0,4.67,0.68,6.71,2.03c2.05,1.35,3.77,3.17,5.18,5.47v-23.64H1679.47z M1662.41,1051.16c1.41,0,2.72-0.33,3.93-0.99  c1.21-0.66,2.28-1.57,3.2-2.72c0.92-1.15,1.64-2.47,2.17-3.98c0.53-1.5,0.8-3.12,0.8-4.86c0-1.73-0.27-3.35-0.8-4.86  c-0.53-1.5-1.26-2.82-2.17-3.94c-0.92-1.12-1.98-2.01-3.2-2.68c-1.21-0.66-2.53-0.99-3.93-0.99s-2.72,0.33-3.93,0.99  c-1.21,0.66-2.28,1.56-3.2,2.68c-0.92,1.12-1.64,2.44-2.17,3.94c-0.53,1.51-0.8,3.12-0.8,4.86c0,1.73,0.27,3.35,0.8,4.86  c0.53,1.51,1.26,2.83,2.17,3.98c0.92,1.15,1.98,2.05,3.2,2.72C1659.69,1050.83,1661,1051.16,1662.41,1051.16z"></path>	<path class="st3" d="M1692.58,1017.35h6.97v5.05c0.6-0.92,1.45-1.76,2.56-2.53c0.94-0.61,2.17-1.19,3.71-1.72  c1.53-0.54,3.45-0.8,5.75-0.8v8.34c-1.15,0-2.43,0.13-3.83,0.38c-1.41,0.26-2.72,0.68-3.93,1.26c-1.21,0.59-2.23,1.37-3.04,2.33  c-0.81,0.97-1.21,2.17-1.21,3.6v24.86h-6.97V1017.35z"></path>	<path class="st3" d="M1737.64,1017.27c2.39,0,4.41,0.42,6.07,1.26c1.66,0.84,3.05,1.9,4.16,3.17c1.11,1.28,1.99,2.69,2.65,4.25  c0.66,1.56,1.15,3.05,1.47,4.48s0.51,2.69,0.58,3.79c0.06,1.1,0.1,1.85,0.1,2.26v3.98h-24.55c0,0.56,0.17,1.35,0.51,2.39  c0.34,1.04,0.88,2.07,1.63,3.11c0.75,1.04,1.73,1.94,2.94,2.69c1.21,0.76,2.7,1.14,4.44,1.14c1.79,0,3.4-0.2,4.83-0.61  c1.43-0.41,2.67-0.87,3.74-1.38c1.24-0.56,2.34-1.22,3.32-1.99v8.53c-0.34,0.46-0.97,0.93-1.89,1.39c-0.92,0.46-1.97,0.86-3.16,1.2  c-1.19,0.33-2.41,0.62-3.64,0.85c-1.24,0.23-2.3,0.35-3.2,0.35c-0.47,0-1.2-0.08-2.21-0.23c-1-0.15-2.12-0.5-3.36-1.03  c-1.24-0.54-2.49-1.29-3.77-2.26c-1.28-0.97-2.45-2.24-3.52-3.83c-1.07-1.58-1.94-3.53-2.62-5.85c-0.68-2.32-1.02-5.11-1.02-8.38  c0-2.24,0.37-4.51,1.12-6.81c0.75-2.29,1.82-4.36,3.23-6.2c1.41-1.84,3.13-3.34,5.18-4.51  C1732.72,1017.86,1735.04,1017.27,1737.64,1017.27z M1745.7,1033.64c-0.17-1.73-0.58-3.26-1.21-4.59c-0.55-1.17-1.35-2.24-2.4-3.21  c-1.04-0.97-2.5-1.45-4.38-1.45c-1.88,0-3.43,0.37-4.67,1.11c-1.24,0.74-2.22,1.61-2.94,2.6c-0.73,0.99-1.24,2.02-1.53,3.06  c-0.3,1.05-0.45,1.87-0.45,2.49H1745.7z"></path>	<path class="st3" d="M1764.88,1058.12v-40.78h6.97l-0.06,5.66c0.55-1.02,1.3-1.96,2.24-2.83c0.81-0.71,1.84-1.36,3.1-1.95  c1.26-0.59,2.84-0.88,4.76-0.88c2.39,0,4.29,0.45,5.72,1.34c1.43,0.89,2.51,2.09,3.26,3.6c0.75,1.51,1.24,3.21,1.47,5.13  c0.23,1.91,0.35,3.89,0.35,5.93v24.79h-6.97v-25.32c0-1.58-0.45-3.01-1.34-4.28c-0.89-1.27-2.19-1.91-3.88-1.91  c-1.15,0-2.24,0.2-3.28,0.61c-1.04,0.41-1.95,1.02-2.74,1.84c-0.78,0.82-1.42,1.84-1.91,3.06c-0.49,1.22-0.73,2.65-0.73,4.28v21.73  H1764.88z"></path>	<path class="st3" d="M1811.16,1058.12h-6.97v-8.34h6.97V1058.12z"></path></g><rect x="65.97" y="954.15" class="st2" width="1865.89" height="6.17"></rect><g>	<path class="st4" d="M74.61,812.33v2.78c-1.85,0.28-3.15,0.95-3.89,2.01c-0.74,1.06-1.04,2.45-0.9,4.16  c0.14,1.71,0.53,3.54,1.18,5.48l21.23,61.62l-3.75,5l17.76-51.91l1.94,3.75l-21.79,65.65c-0.74-0.09-1.53-0.14-2.36-0.14  s-1.67,0-2.5,0c-0.83,0-1.67,0-2.5,0c-0.83,0-1.62,0.05-2.36,0.14L45.6,823.99c-1.2-3.42-2.62-5.74-4.23-6.94  c-1.62-1.2-3.12-1.85-4.51-1.94v-2.78c2.78,0.09,6.06,0.19,9.85,0.28c3.79,0.09,7.4,0.14,10.83,0.14c3.7,0,7.01-0.04,9.92-0.14  C70.38,812.52,72.76,812.42,74.61,812.33z M173.7,812.33v2.78c-2.04,0.74-4.16,2.34-6.38,4.79c-2.22,2.45-4.16,6.36-5.83,11.73  l-24.43,79.25c-0.74-0.09-1.53-0.14-2.36-0.14c-0.83,0-1.67,0-2.5,0c-0.83,0-1.67,0-2.5,0s-1.62,0.05-2.36,0.14L98.2,822.6  c-0.93-2.87-2.06-4.81-3.4-5.83c-1.34-1.02-2.75-1.57-4.23-1.67v-2.78c2.59,0.09,5.67,0.19,9.23,0.28  c3.56,0.09,7.1,0.14,10.62,0.14c4.07,0,7.89-0.04,11.45-0.14c3.56-0.09,6.41-0.18,8.54-0.28v2.78c-2.78,0.09-4.97,0.42-6.59,0.97  c-1.62,0.56-2.55,1.62-2.78,3.19c-0.23,1.57,0.21,4.07,1.32,7.49L142.06,887l-3.19,5.69l15.68-49.82  c2.22-7.03,3.28-12.54,3.19-16.52c-0.09-3.98-1.16-6.82-3.19-8.54c-2.04-1.71-4.95-2.61-8.74-2.71v-2.78  c3.14,0.09,6.11,0.19,8.88,0.28c2.78,0.09,5.55,0.14,8.33,0.14c2.13,0,4.09-0.04,5.9-0.14  C170.72,812.52,172.31,812.42,173.7,812.33z"></path>	<path class="st4" d="M202.29,836.9c6.75,0,12.68,1.25,17.76,3.75c5.09,2.5,9.07,6.52,11.94,12.07c2.87,5.55,4.3,12.91,4.3,22.07  c0,9.16-1.44,16.49-4.3,22c-2.87,5.51-6.85,9.51-11.94,12c-5.09,2.5-11.01,3.75-17.76,3.75c-6.57,0-12.42-1.25-17.56-3.75  c-5.14-2.5-9.16-6.5-12.07-12c-2.91-5.5-4.37-12.84-4.37-22c0-9.16,1.46-16.52,4.37-22.07c2.91-5.55,6.94-9.58,12.07-12.07  S195.72,836.9,202.29,836.9z M202.29,839.67c-3.7,0-6.8,2.75-9.3,8.26c-2.5,5.51-3.75,14.46-3.75,26.85  c0,12.4,1.25,21.33,3.75,26.79c2.5,5.46,5.6,8.19,9.3,8.19c3.79,0,6.92-2.73,9.37-8.19c2.45-5.46,3.68-14.39,3.68-26.79  c0-12.4-1.23-21.35-3.68-26.85C209.21,842.43,206.08,839.67,202.29,839.67z"></path>	<path class="st4" d="M295.28,836.9c3.89,0,7.03,0.49,9.44,1.46c2.4,0.97,4.35,2.29,5.83,3.96c1.48,1.76,2.54,4.05,3.19,6.87  c0.65,2.82,0.97,6.55,0.97,11.17v37.33c0,3.89,0.6,6.52,1.8,7.91c1.2,1.39,3.28,2.08,6.25,2.08v2.91  c-1.67-0.09-4.19-0.21-7.56-0.35c-3.38-0.14-6.69-0.21-9.92-0.21c-3.33,0-6.62,0.07-9.85,0.21c-3.24,0.14-5.69,0.26-7.36,0.35  v-2.91c2.5,0,4.23-0.69,5.2-2.08c0.97-1.39,1.46-4.03,1.46-7.91v-43.16c0-2.31-0.19-4.32-0.56-6.04c-0.37-1.71-1.09-3.05-2.15-4.02  c-1.06-0.97-2.66-1.46-4.79-1.46c-2.41,0-4.63,0.69-6.66,2.08c-2.04,1.39-3.68,3.31-4.93,5.76c-1.25,2.45-1.87,5.21-1.87,8.26  v38.58c0,3.89,0.51,6.52,1.53,7.91c1.02,1.39,2.73,2.08,5.14,2.08v2.91c-1.48-0.09-3.77-0.21-6.87-0.35  c-3.1-0.14-6.27-0.21-9.51-0.21c-3.52,0-7.13,0.07-10.83,0.21c-3.7,0.14-6.48,0.26-8.33,0.35v-2.91c3.24,0,5.53-0.69,6.87-2.08  c1.34-1.39,2.01-4.03,2.01-7.91v-43.72c0-4.16-0.62-7.24-1.87-9.23c-1.25-1.99-3.59-2.98-7.01-2.98v-2.92  c2.96,0.28,5.83,0.42,8.6,0.42c3.89,0,7.52-0.16,10.89-0.49c3.38-0.32,6.5-0.81,9.37-1.46v12.49c2.22-4.62,5.23-7.93,9.02-9.92  C286.58,837.89,290.74,836.9,295.28,836.9z M337.05,836.9c3.89,0,7.03,0.49,9.44,1.46c2.4,0.97,4.35,2.29,5.83,3.96  c1.48,1.76,2.54,4.05,3.19,6.87c0.65,2.82,0.97,6.55,0.97,11.17v37.33c0,3.89,0.67,6.52,2.01,7.91c1.34,1.39,3.63,2.08,6.87,2.08  v2.91c-1.76-0.09-4.4-0.21-7.91-0.35c-3.52-0.14-6.99-0.21-10.41-0.21c-3.33,0-6.62,0.07-9.85,0.21c-3.24,0.14-5.69,0.26-7.36,0.35  v-2.91c2.5,0,4.23-0.69,5.2-2.08s1.46-4.03,1.46-7.91v-43.16c0-2.31-0.21-4.32-0.62-6.04c-0.42-1.71-1.2-3.05-2.36-4.02  c-1.16-0.97-2.94-1.46-5.34-1.46c-2.41,0-4.63,0.74-6.66,2.22c-2.04,1.48-3.68,3.47-4.93,5.97c-1.25,2.5-1.92,5.27-2.01,8.33  l-0.69-8.47c2.5-5.55,5.8-9.3,9.92-11.24C327.91,837.87,332.33,836.9,337.05,836.9z"></path>	<path class="st4" d="M406.3,836.9c8.14,0,14.52,2.41,19.15,7.22c4.63,4.81,6.94,12.68,6.94,23.59h-45.66l-0.28-2.64h28.45  c0.09-4.53-0.19-8.72-0.83-12.56c-0.65-3.84-1.67-6.92-3.05-9.23c-1.39-2.31-3.24-3.47-5.55-3.47c-3.24,0-5.99,2.04-8.26,6.11  c-2.27,4.07-3.63,10.83-4.09,20.26l0.42,0.83c-0.09,1.11-0.16,2.27-0.21,3.47c-0.05,1.2-0.07,2.45-0.07,3.75  c0,6.38,0.9,11.57,2.71,15.54c1.8,3.98,4.09,6.87,6.87,8.67c2.78,1.8,5.6,2.71,8.47,2.71c1.94,0,3.96-0.3,6.04-0.9  c2.08-0.6,4.19-1.71,6.31-3.33c2.13-1.62,4.12-3.91,5.97-6.87l2.5,0.83c-1.11,3.52-2.87,6.94-5.27,10.27  c-2.41,3.33-5.46,6.06-9.16,8.19c-3.7,2.13-8.14,3.19-13.32,3.19c-6.29,0-11.84-1.34-16.65-4.03c-4.81-2.68-8.58-6.75-11.31-12.21  c-2.73-5.46-4.09-12.4-4.09-20.82c0-8.6,1.46-15.77,4.37-21.51c2.91-5.74,6.94-10.01,12.07-12.84  C393.88,838.31,399.73,836.9,406.3,836.9z"></path>	<path class="st4" d="M491.24,836.9c3.89,0,7.05,0.49,9.51,1.46c2.45,0.97,4.37,2.29,5.76,3.96c1.48,1.76,2.57,4.02,3.26,6.8  c0.69,2.78,1.04,6.52,1.04,11.24v37.33c0,3.89,0.67,6.52,2.01,7.91c1.34,1.39,3.63,2.08,6.87,2.08v2.91  c-1.76-0.09-4.4-0.21-7.91-0.35c-3.52-0.14-6.99-0.21-10.41-0.21c-3.52,0-6.96,0.07-10.34,0.21c-3.38,0.14-5.95,0.26-7.7,0.35  v-2.91c2.78,0,4.72-0.69,5.83-2.08s1.67-4.03,1.67-7.91v-43.16c0-2.31-0.23-4.32-0.69-6.04c-0.46-1.71-1.3-3.05-2.5-4.02  c-1.2-0.97-3.01-1.46-5.41-1.46c-2.5,0-4.79,0.69-6.87,2.08c-2.08,1.39-3.75,3.31-5,5.76c-1.25,2.45-1.87,5.21-1.87,8.26v38.58  c0,3.89,0.58,6.52,1.73,7.91c1.16,1.39,3.07,2.08,5.76,2.08v2.91c-1.67-0.09-4.09-0.21-7.29-0.35s-6.5-0.21-9.92-0.21  c-3.52,0-7.13,0.07-10.83,0.21c-3.7,0.14-6.48,0.26-8.33,0.35v-2.91c3.24,0,5.53-0.69,6.87-2.08c1.34-1.39,2.01-4.03,2.01-7.91  v-43.72c0-4.16-0.62-7.24-1.87-9.23c-1.25-1.99-3.59-2.98-7.01-2.98v-2.92c2.96,0.28,5.83,0.42,8.6,0.42  c3.89,0,7.52-0.16,10.89-0.49c3.38-0.32,6.5-0.81,9.37-1.46v12.49c2.31-4.72,5.46-8.05,9.44-9.99  C481.89,837.87,486.33,836.9,491.24,836.9z"></path>	<path class="st4" d="M560.34,884.37c0-5.92,1.45-11.08,4.34-15.48c2.89-4.41,8.11-8.78,15.65-13.11  c-4.29-5.02-7.22-9.25-8.78-12.71s-2.34-7.04-2.34-10.74c0-6.87,2.45-12.29,7.35-16.26c4.9-3.98,11.49-5.96,19.75-5.96  c8,0,14.28,1.93,18.84,5.79c4.56,3.86,6.84,9.07,6.84,15.62c0,5.15-1.52,9.83-4.57,14.03c-3.05,4.2-8.14,8.4-15.28,12.6  l23.45,22.63c3.66-4.83,6.71-11.93,9.15-21.28h16.4c-3.16,12.83-8.22,23.29-15.18,31.38l20.4,19.72h-20.53l-10.1-9.83  c-4.61,3.71-9.52,6.5-14.74,8.37s-10.99,2.81-17.31,2.81c-10.39,0-18.55-2.46-24.46-7.39C563.29,899.64,560.34,892.9,560.34,884.37  z M594.49,898.26c8.27,0,15.34-2.42,21.21-7.25l-25.95-25.55c-4.79,3.07-8.09,5.95-9.89,8.64c-1.81,2.69-2.71,5.75-2.71,9.18  c0,4.43,1.57,8.03,4.71,10.81C584.99,896.87,589.2,898.26,594.49,898.26z M584.39,832.86c0,2.85,0.76,5.53,2.27,8.06  c1.51,2.53,3.63,5.22,6.34,8.06c5.1-2.89,8.68-5.59,10.74-8.1c2.06-2.51,3.08-5.32,3.08-8.44c0-2.94-0.98-5.29-2.95-7.05  c-1.97-1.76-4.57-2.64-7.83-2.64c-3.57,0-6.4,0.92-8.5,2.75C585.44,827.34,584.39,829.79,584.39,832.86z"></path>	<path class="st4" d="M744,810.39c6.11,0,11.12,0.9,15.06,2.71c3.93,1.8,7.42,3.91,10.48,6.31c1.85,1.39,3.26,1.55,4.23,0.49  c0.97-1.06,1.64-3.58,2.01-7.56h3.19c-0.19,3.61-0.33,7.98-0.42,13.12c-0.09,5.13-0.14,11.96-0.14,20.47h-3.19  c-0.46-4.25-1.06-7.89-1.8-10.89c-0.74-3.01-1.76-5.67-3.05-7.98c-1.3-2.31-3.15-4.39-5.55-6.25c-2.31-2.31-5-4.02-8.05-5.13  s-6.25-1.67-9.58-1.67c-5,0-9.25,1.32-12.77,3.96c-3.52,2.64-6.36,6.22-8.54,10.76c-2.18,4.53-3.77,9.65-4.79,15.34  c-1.02,5.69-1.53,11.59-1.53,17.69c0,6.2,0.53,12.14,1.6,17.83c1.06,5.69,2.73,10.76,5,15.2c2.27,4.44,5.2,7.96,8.81,10.55  c3.61,2.59,7.86,3.89,12.77,3.89c3.05,0,6.13-0.58,9.23-1.74c3.1-1.16,5.76-2.84,7.98-5.07c3.61-2.78,6.06-6.22,7.36-10.34  c1.29-4.12,2.27-9.6,2.91-16.45h3.19c0,8.79,0.05,15.89,0.14,21.3c0.09,5.41,0.23,9.97,0.42,13.67h-3.19  c-0.37-3.98-1-6.48-1.87-7.49c-0.88-1.02-2.34-0.88-4.37,0.42c-3.42,2.41-7.06,4.51-10.89,6.31c-3.84,1.8-8.77,2.71-14.78,2.71  c-9.81,0-18.39-1.99-25.74-5.97c-7.36-3.98-13.07-9.71-17.14-17.21c-4.07-7.49-6.11-16.51-6.11-27.06c0-10.36,2.1-19.43,6.31-27.2  c4.21-7.77,9.99-13.83,17.35-18.18C725.88,812.56,734.37,810.39,744,810.39z"></path>	<path class="st4" d="M818.24,802.06v47.74c2.31-4.81,5.43-8.16,9.37-10.06c3.93-1.9,8.35-2.84,13.25-2.84  c3.98,0,7.17,0.49,9.58,1.46c2.4,0.97,4.3,2.29,5.69,3.96c1.57,1.76,2.71,4.02,3.4,6.8c0.69,2.78,1.04,6.52,1.04,11.24v37.33  c0,3.89,0.67,6.52,2.01,7.91c1.34,1.39,3.63,2.08,6.87,2.08v2.91c-1.76-0.09-4.42-0.21-7.98-0.35c-3.56-0.14-7.01-0.21-10.34-0.21  c-3.61,0-7.1,0.07-10.48,0.21c-3.38,0.14-5.9,0.26-7.56,0.35v-2.91c2.78,0,4.72-0.69,5.83-2.08s1.67-4.03,1.67-7.91v-43.16  c0-2.31-0.23-4.32-0.69-6.04c-0.46-1.71-1.32-3.05-2.57-4.02s-3.03-1.46-5.34-1.46c-2.5,0-4.79,0.67-6.87,2.01  c-2.08,1.34-3.75,3.22-5,5.62c-1.25,2.41-1.87,5.18-1.87,8.33v38.72c0,3.89,0.55,6.52,1.67,7.91s3.05,2.08,5.83,2.08v2.91  c-1.67-0.09-4.12-0.21-7.36-0.35c-3.24-0.14-6.52-0.21-9.85-0.21c-3.61,0-7.24,0.07-10.89,0.21c-3.66,0.14-6.41,0.26-8.26,0.35  v-2.91c3.24,0,5.53-0.69,6.87-2.08c1.34-1.39,2.01-4.03,2.01-7.91v-78.97c0-4.16-0.62-7.24-1.87-9.23  c-1.25-1.99-3.59-2.98-7.01-2.98v-2.91c2.96,0.28,5.83,0.42,8.6,0.42c3.79,0,7.4-0.16,10.83-0.49  C812.23,803.2,815.38,802.71,818.24,802.06z"></path>	<path class="st4" d="M903.32,837.31v60.37c0,3.89,0.67,6.52,2.01,7.91c1.34,1.39,3.63,2.08,6.87,2.08v2.91  c-1.67-0.09-4.26-0.21-7.77-0.35c-3.52-0.14-7.08-0.21-10.69-0.21s-7.26,0.07-10.96,0.21c-3.7,0.14-6.48,0.26-8.33,0.35v-2.91  c3.24,0,5.53-0.69,6.87-2.08c1.34-1.39,2.01-4.03,2.01-7.91v-43.72c0-4.16-0.62-7.24-1.87-9.23c-1.25-1.99-3.59-2.98-7.01-2.98  v-2.92c2.96,0.28,5.83,0.42,8.6,0.42c3.89,0,7.52-0.16,10.89-0.49C897.33,838.45,900.45,837.96,903.32,837.31z M892.49,803.03  c3.89,0,6.96,0.95,9.23,2.85c2.27,1.9,3.4,4.51,3.4,7.84s-1.13,5.95-3.4,7.84c-2.27,1.9-5.34,2.84-9.23,2.84  c-3.89,0-6.96-0.95-9.23-2.84c-2.27-1.9-3.4-4.51-3.4-7.84s1.13-5.94,3.4-7.84C885.53,803.98,888.61,803.03,892.49,803.03z"></path>	<path class="st4" d="M946.48,801.92v95.76c0,3.89,0.67,6.52,2.01,7.91c1.34,1.39,3.63,2.08,6.87,2.08v2.91  c-1.76-0.09-4.4-0.21-7.91-0.35c-3.52-0.14-7.08-0.21-10.69-0.21s-7.24,0.07-10.9,0.21c-3.66,0.14-6.41,0.26-8.26,0.35v-2.91  c3.24,0,5.53-0.69,6.87-2.08c1.34-1.39,2.01-4.03,2.01-7.91v-79.11c0-4.16-0.62-7.24-1.87-9.23c-1.25-1.99-3.59-2.98-7.01-2.98  v-2.91c2.96,0.28,5.83,0.42,8.6,0.42c3.79,0,7.4-0.16,10.83-0.49C940.46,803.06,943.61,802.57,946.48,801.92z"></path>	<path class="st4" d="M992.83,836.9c4.07,0,7.65,0.67,10.76,2.01c3.1,1.34,5.53,3.59,7.29,6.73l-1.66,1.53  c-1.21-2.22-2.8-3.82-4.79-4.79c-1.99-0.97-4.09-1.46-6.31-1.46c-4.72,0-8.46,2.75-11.24,8.26c-2.78,5.51-4.12,14-4.02,25.47  c0,7.87,0.53,14.13,1.6,18.81c1.06,4.67,2.59,8.03,4.58,10.06c1.99,2.04,4.28,3.05,6.87,3.05c3.14,0,5.97-1.25,8.47-3.75  c2.5-2.5,3.84-5.88,4.02-10.13l0.7,4.86c-1.39,4.91-3.63,8.63-6.73,11.17c-3.1,2.54-7.15,3.82-12.14,3.82  c-5.46,0-10.34-1.34-14.64-4.03s-7.66-6.82-10.06-12.42c-2.41-5.6-3.61-12.84-3.61-21.72c0-8.42,1.34-15.38,4.02-20.89  c2.68-5.5,6.36-9.65,11.03-12.42C981.61,838.28,986.91,836.9,992.83,836.9z M1028.22,801.92v93.4c0,4.16,0.64,7.24,1.94,9.23  c1.29,1.99,3.61,2.98,6.94,2.98v2.92c-2.87-0.28-5.74-0.42-8.6-0.42c-3.89,0-7.52,0.14-10.89,0.42c-3.38,0.28-6.5,0.79-9.37,1.53  v-93.4c0-4.16-0.62-7.24-1.87-9.23c-1.25-1.99-3.59-2.98-7.01-2.98v-2.91c2.96,0.28,5.83,0.42,8.6,0.42c3.79,0,7.4-0.16,10.83-0.49  C1022.21,803.06,1025.35,802.57,1028.22,801.92z"></path>	<path class="st4" d="M1127.03,810.39c6.11,0,11.12,0.9,15.06,2.71c3.93,1.8,7.42,3.91,10.48,6.31c1.85,1.39,3.26,1.55,4.23,0.49  c0.97-1.06,1.64-3.58,2.01-7.56h3.19c-0.19,3.61-0.33,7.98-0.42,13.12c-0.09,5.13-0.14,11.96-0.14,20.47h-3.19  c-0.46-4.25-1.06-7.89-1.8-10.89c-0.74-3.01-1.76-5.67-3.05-7.98c-1.3-2.31-3.15-4.39-5.55-6.25c-2.31-2.31-5-4.02-8.05-5.13  c-3.05-1.11-6.25-1.67-9.58-1.67c-5,0-9.25,1.32-12.77,3.96c-3.52,2.64-6.36,6.22-8.54,10.76c-2.17,4.53-3.77,9.65-4.79,15.34  c-1.02,5.69-1.53,11.59-1.53,17.69c0,6.2,0.53,12.14,1.6,17.83c1.06,5.69,2.73,10.76,5,15.2c2.27,4.44,5.2,7.96,8.81,10.55  c3.61,2.59,7.86,3.89,12.77,3.89c3.05,0,6.13-0.58,9.23-1.74c3.1-1.16,5.76-2.84,7.98-5.07c3.61-2.78,6.06-6.22,7.36-10.34  c1.29-4.12,2.27-9.6,2.91-16.45h3.19c0,8.79,0.04,15.89,0.14,21.3c0.09,5.41,0.23,9.97,0.42,13.67h-3.19  c-0.37-3.98-1-6.48-1.87-7.49c-0.88-1.02-2.34-0.88-4.37,0.42c-3.42,2.41-7.06,4.51-10.89,6.31c-3.84,1.8-8.77,2.71-14.78,2.71  c-9.81,0-18.39-1.99-25.75-5.97c-7.36-3.98-13.07-9.71-17.14-17.21c-4.07-7.49-6.11-16.51-6.11-27.06c0-10.36,2.1-19.43,6.31-27.2  c4.21-7.77,9.99-13.83,17.35-18.18C1108.92,812.56,1117.41,810.39,1127.03,810.39z"></path>	<path class="st4" d="M1192.26,911.56c-4.16,0-7.63-0.79-10.41-2.36s-4.81-3.68-6.11-6.31c-1.3-2.64-1.94-5.53-1.94-8.67  c0-3.98,0.9-7.22,2.71-9.71c1.8-2.5,4.14-4.53,7.01-6.11c2.87-1.57,5.9-2.87,9.09-3.89c3.19-1.02,6.25-2.01,9.16-2.98  c2.91-0.97,5.27-2.13,7.08-3.47c1.8-1.34,2.71-3.08,2.71-5.21v-10.83c0-2.4-0.39-4.56-1.18-6.45c-0.79-1.9-1.99-3.35-3.61-4.37  c-1.62-1.02-3.73-1.53-6.31-1.53c-1.85,0-3.7,0.26-5.55,0.76c-1.85,0.51-3.38,1.37-4.58,2.57c2.59,0.93,4.6,2.34,6.04,4.23  c1.43,1.9,2.15,4.05,2.15,6.45c0,3.15-1.09,5.64-3.26,7.49c-2.17,1.85-4.74,2.78-7.7,2.78c-3.33,0-5.85-1.04-7.56-3.12  c-1.71-2.08-2.57-4.6-2.57-7.56c0-2.68,0.67-4.9,2.01-6.66c1.34-1.76,3.21-3.42,5.62-5c2.59-1.48,5.71-2.64,9.37-3.47  c3.65-0.83,7.61-1.25,11.87-1.25c4.25,0,8.1,0.44,11.52,1.32c3.42,0.88,6.29,2.48,8.6,4.79c2.13,2.13,3.52,4.74,4.16,7.84  c0.65,3.1,0.97,7.01,0.97,11.73v37.75c0,2.31,0.23,3.91,0.69,4.79c0.46,0.88,1.25,1.32,2.36,1.32c0.83,0,1.64-0.23,2.43-0.69  c0.79-0.46,1.64-1.02,2.57-1.67l1.39,2.36c-1.94,1.67-4.19,2.94-6.73,3.82c-2.55,0.88-5.39,1.32-8.54,1.32  c-3.42,0-6.15-0.49-8.19-1.46c-2.04-0.97-3.49-2.29-4.37-3.96c-0.88-1.67-1.32-3.61-1.32-5.83c-2.22,3.52-4.91,6.27-8.05,8.26  C1200.63,910.57,1196.79,911.56,1192.26,911.56z M1202.11,902.68c1.85,0,3.54-0.44,5.07-1.32c1.53-0.88,2.98-2.33,4.37-4.37v-28.45  c-0.83,1.39-1.99,2.64-3.47,3.75c-1.48,1.11-3.05,2.24-4.72,3.4c-1.67,1.16-3.26,2.43-4.79,3.82s-2.75,3.1-3.68,5.13  c-0.93,2.04-1.39,4.49-1.39,7.36c0,3.61,0.79,6.29,2.36,8.05C1197.44,901.8,1199.52,902.68,1202.11,902.68z"></path>	<path class="st4" d="M1292.74,836.9c2.96,0,5.36,0.62,7.22,1.87c1.85,1.25,3.21,2.84,4.09,4.79c0.88,1.94,1.32,3.98,1.32,6.11  c0,3.42-1,6.22-2.98,8.4c-1.99,2.17-4.6,3.26-7.84,3.26c-3.24,0-5.76-0.81-7.56-2.43c-1.8-1.62-2.71-3.77-2.71-6.45  c0-2.59,0.58-4.74,1.73-6.45c1.16-1.71,2.61-3.17,4.37-4.37c-1.3-0.37-2.59-0.32-3.89,0.14c-1.76,0.28-3.42,1-5,2.15  c-1.57,1.16-2.91,2.59-4.02,4.3c-1.11,1.71-1.99,3.56-2.64,5.55c-0.65,1.99-0.97,3.91-0.97,5.76v36.78c0,4.44,1.09,7.45,3.26,9.02  c2.17,1.57,5.43,2.36,9.78,2.36v2.91c-2.13-0.09-5.23-0.21-9.3-0.35c-4.07-0.14-8.33-0.21-12.77-0.21c-3.7,0-7.45,0.07-11.24,0.21  c-3.79,0.14-6.66,0.26-8.6,0.35v-2.91c3.24,0,5.53-0.69,6.87-2.08c1.34-1.39,2.01-4.03,2.01-7.91v-43.72  c0-4.16-0.62-7.24-1.87-9.23c-1.25-1.99-3.59-2.98-7.01-2.98v-2.92c2.96,0.28,5.83,0.42,8.6,0.42c3.89,0,7.52-0.16,10.89-0.49  c3.38-0.32,6.5-0.81,9.37-1.46v12.91c1.11-2.5,2.59-4.76,4.44-6.8c1.85-2.03,3.98-3.63,6.38-4.79  C1287.09,837.47,1289.78,836.9,1292.74,836.9z"></path>	<path class="st4" d="M1343.67,836.9c8.14,0,14.52,2.41,19.15,7.22c4.62,4.81,6.94,12.68,6.94,23.59h-45.66l-0.28-2.64h28.45  c0.09-4.53-0.19-8.72-0.83-12.56c-0.65-3.84-1.67-6.92-3.05-9.23c-1.39-2.31-3.24-3.47-5.55-3.47c-3.24,0-5.99,2.04-8.26,6.11  c-2.27,4.07-3.63,10.83-4.09,20.26l0.42,0.83c-0.09,1.11-0.16,2.27-0.21,3.47c-0.05,1.2-0.07,2.45-0.07,3.75  c0,6.38,0.9,11.57,2.71,15.54c1.8,3.98,4.09,6.87,6.87,8.67c2.78,1.8,5.6,2.71,8.47,2.71c1.94,0,3.96-0.3,6.04-0.9  c2.08-0.6,4.19-1.71,6.31-3.33c2.13-1.62,4.12-3.91,5.97-6.87l2.5,0.83c-1.11,3.52-2.87,6.94-5.27,10.27  c-2.41,3.33-5.46,6.06-9.16,8.19c-3.7,2.13-8.14,3.19-13.32,3.19c-6.29,0-11.84-1.34-16.65-4.03c-4.81-2.68-8.58-6.75-11.31-12.21  c-2.73-5.46-4.09-12.4-4.09-20.82c0-8.6,1.46-15.77,4.37-21.51c2.91-5.74,6.94-10.01,12.07-12.84  C1331.25,838.31,1337.1,836.9,1343.67,836.9z"></path>	<path class="st4" d="M1411.54,910.59v-2.78c2.96-0.18,5.18-0.56,6.66-1.11c1.48-0.56,2.47-1.67,2.98-3.33  c0.51-1.67,0.76-4.16,0.76-7.49v-68.84c0-3.42-0.26-5.94-0.76-7.56c-0.51-1.62-1.53-2.73-3.05-3.33c-1.53-0.6-3.72-0.95-6.59-1.04  v-2.78c2.41,0.09,5.53,0.19,9.37,0.28c3.84,0.09,8.03,0.14,12.56,0.14c3.89,0,7.72-0.04,11.52-0.14c3.79-0.09,6.94-0.18,9.44-0.28  v2.78c-2.96,0.09-5.21,0.44-6.73,1.04c-1.53,0.6-2.52,1.71-2.98,3.33c-0.46,1.62-0.69,4.14-0.69,7.56v68.84  c0,3.33,0.25,5.83,0.76,7.49c0.51,1.67,1.5,2.78,2.98,3.33c1.48,0.55,3.7,0.93,6.66,1.11v2.78c-2.5-0.18-5.64-0.3-9.44-0.35  c-3.79-0.05-7.63-0.07-11.52-0.07c-4.53,0-8.72,0.02-12.56,0.07C1417.06,910.29,1413.94,910.41,1411.54,910.59z M1434.99,862.57  v-2.78h54.82v2.78H1434.99z M1470.38,910.59v-2.78c2.96-0.18,5.18-0.56,6.66-1.11c1.48-0.56,2.47-1.67,2.98-3.33  c0.51-1.67,0.76-4.16,0.76-7.49v-68.84c0-3.42-0.26-5.94-0.76-7.56c-0.51-1.62-1.53-2.73-3.05-3.33c-1.53-0.6-3.73-0.95-6.59-1.04  v-2.78c2.5,0.09,5.76,0.19,9.78,0.28c4.03,0.09,8.03,0.14,12,0.14c4.25,0,8.26-0.04,12-0.14c3.75-0.09,6.78-0.18,9.09-0.28v2.78  c-2.96,0.09-5.21,0.44-6.73,1.04c-1.53,0.6-2.52,1.71-2.98,3.33c-0.46,1.62-0.69,4.14-0.69,7.56v68.84c0,3.33,0.25,5.83,0.76,7.49  c0.51,1.67,1.5,2.78,2.98,3.33c1.48,0.55,3.7,0.93,6.66,1.11v2.78c-2.31-0.18-5.34-0.3-9.09-0.35c-3.75-0.05-7.75-0.07-12-0.07  c-3.98,0-7.98,0.02-12,0.07C1476.14,910.29,1472.88,910.41,1470.38,910.59z"></path>	<path class="st4" d="M1554.35,836.9c6.75,0,12.67,1.25,17.76,3.75c5.09,2.5,9.07,6.52,11.94,12.07c2.87,5.55,4.3,12.91,4.3,22.07  c0,9.16-1.44,16.49-4.3,22c-2.87,5.51-6.85,9.51-11.94,12c-5.09,2.5-11.01,3.75-17.76,3.75c-6.57,0-12.42-1.25-17.56-3.75  c-5.13-2.5-9.16-6.5-12.07-12c-2.92-5.5-4.37-12.84-4.37-22c0-9.16,1.46-16.52,4.37-22.07c2.91-5.55,6.94-9.58,12.07-12.07  S1547.77,836.9,1554.35,836.9z M1554.35,839.67c-3.7,0-6.8,2.75-9.3,8.26c-2.5,5.51-3.75,14.46-3.75,26.85  c0,12.4,1.25,21.33,3.75,26.79c2.5,5.46,5.6,8.19,9.3,8.19c3.79,0,6.92-2.73,9.37-8.19c2.45-5.46,3.68-14.39,3.68-26.79  c0-12.4-1.23-21.35-3.68-26.85C1561.26,842.43,1558.14,839.67,1554.35,839.67z"></path>	<path class="st4" d="M1624.43,836.9c3.89,0,7.29,0.49,10.2,1.46c2.92,0.97,5.02,1.92,6.31,2.84c3.14,2.13,5.09,0.74,5.83-4.16h2.92  c-0.19,2.59-0.33,5.76-0.42,9.51c-0.09,3.75-0.14,8.72-0.14,14.92h-2.91c-0.46-3.42-1.34-6.8-2.64-10.13  c-1.3-3.33-3.17-6.06-5.62-8.19c-2.45-2.13-5.62-3.19-9.51-3.19c-2.68,0-4.95,0.76-6.8,2.29c-1.85,1.53-2.78,3.73-2.78,6.59  c0,2.78,0.83,5.2,2.5,7.29c1.67,2.08,3.82,4.07,6.45,5.97c2.64,1.9,5.39,3.91,8.26,6.04c3.05,2.31,5.83,4.6,8.33,6.87  c2.5,2.27,4.49,4.74,5.97,7.43c1.48,2.68,2.22,5.88,2.22,9.58c0,4.16-1.2,7.8-3.61,10.9c-2.41,3.1-5.58,5.48-9.51,7.15  c-3.93,1.67-8.3,2.5-13.12,2.5c-2.78,0-5.25-0.28-7.42-0.83c-2.17-0.56-4.05-1.25-5.62-2.08c-1.2-0.55-2.34-1.09-3.4-1.6  c-1.07-0.51-2.06-0.95-2.98-1.32c-0.93-0.28-1.73,0.05-2.43,0.97c-0.69,0.93-1.23,2.22-1.6,3.89H1600  c0.18-2.96,0.32-6.57,0.42-10.83c0.09-4.25,0.14-9.9,0.14-16.93h2.91c0.56,5,1.57,9.42,3.05,13.25c1.48,3.84,3.49,6.85,6.04,9.02  c2.54,2.17,5.76,3.26,9.65,3.26c1.57,0,3.1-0.32,4.58-0.97c1.48-0.65,2.71-1.71,3.68-3.19c0.97-1.48,1.46-3.38,1.46-5.69  c0-4.07-1.32-7.45-3.96-10.13c-2.64-2.68-5.99-5.6-10.06-8.74c-2.96-2.41-5.76-4.79-8.4-7.15s-4.79-4.95-6.45-7.77  c-1.67-2.82-2.5-6.04-2.5-9.65c0-4.16,1.11-7.68,3.33-10.55c2.22-2.87,5.16-5.02,8.81-6.45  C1616.36,837.61,1620.27,836.9,1624.43,836.9z"></path>	<path class="st4" d="M1689.38,837.31v84.66c0,4.35,1.11,7.24,3.33,8.67c2.22,1.43,5.27,2.15,9.16,2.15v2.91  c-2.41-0.09-5.71-0.21-9.92-0.35c-4.21-0.14-8.67-0.21-13.39-0.21c-3.42,0-6.78,0.07-10.06,0.21c-3.29,0.14-5.76,0.25-7.42,0.35  v-2.91c3.05,0,5.2-0.65,6.45-1.94c1.25-1.3,1.87-3.79,1.87-7.49v-69.39c0-4.16-0.65-7.24-1.94-9.23c-1.3-1.99-3.61-2.98-6.94-2.98  v-2.92c2.96,0.28,5.83,0.42,8.6,0.42c3.79,0,7.4-0.16,10.83-0.49C1683.36,838.45,1686.51,837.96,1689.38,837.31z M1710.89,836.9  c4.72,0,8.93,1.27,12.63,3.82c3.7,2.55,6.66,6.38,8.88,11.52c2.22,5.14,3.33,11.54,3.33,19.22c0,6.75-0.76,12.68-2.29,17.76  c-1.53,5.09-3.7,9.37-6.52,12.84c-2.82,3.47-6.2,6.08-10.13,7.84c-3.93,1.76-8.35,2.64-13.25,2.64c-3.61,0-6.89-0.62-9.85-1.87  c-2.96-1.25-5.23-3.03-6.8-5.34l1.39-1.8c0.92,1.67,2.24,2.96,3.96,3.89c1.71,0.93,3.68,1.39,5.9,1.39c4.16,0,7.45-1.41,9.85-4.23  c2.4-2.82,4.14-6.8,5.2-11.94c1.06-5.13,1.6-11.26,1.6-18.39c0-7.96-0.51-14.2-1.53-18.74c-1.02-4.53-2.41-7.77-4.16-9.71  c-1.76-1.94-3.89-2.91-6.38-2.91c-3.33,0-6.36,1.3-9.09,3.89c-2.73,2.59-4.28,6.29-4.65,11.1l-0.69-4.86  c1.67-5.27,4.51-9.27,8.54-12C1700.83,838.26,1705.52,836.9,1710.89,836.9z"></path>	<path class="st4" d="M1773.2,837.31v60.37c0,3.89,0.67,6.52,2.01,7.91c1.34,1.39,3.63,2.08,6.87,2.08v2.91  c-1.67-0.09-4.26-0.21-7.77-0.35c-3.52-0.14-7.08-0.21-10.69-0.21s-7.26,0.07-10.96,0.21c-3.7,0.14-6.48,0.26-8.33,0.35v-2.91  c3.24,0,5.53-0.69,6.87-2.08c1.34-1.39,2.01-4.03,2.01-7.91v-43.72c0-4.16-0.62-7.24-1.87-9.23c-1.25-1.99-3.59-2.98-7.01-2.98  v-2.92c2.96,0.28,5.83,0.42,8.6,0.42c3.89,0,7.52-0.16,10.89-0.49C1767.21,838.45,1770.33,837.96,1773.2,837.31z M1762.38,803.03  c3.89,0,6.96,0.95,9.23,2.85c2.27,1.9,3.4,4.51,3.4,7.84s-1.13,5.95-3.4,7.84c-2.27,1.9-5.34,2.84-9.23,2.84s-6.96-0.95-9.23-2.84  c-2.27-1.9-3.4-4.51-3.4-7.84s1.13-5.94,3.4-7.84C1755.42,803.98,1758.49,803.03,1762.38,803.03z"></path>	<path class="st4" d="M1816.23,816.08v22.76h16.38v2.78h-16.38v56.07c0,2.78,0.51,4.74,1.53,5.9c1.02,1.16,2.54,1.74,4.58,1.74  c1.67,0,3.33-0.62,5-1.87c1.67-1.25,3.14-3.4,4.44-6.45l2.36,1.25c-1.48,4.16-3.73,7.59-6.73,10.27c-3.01,2.68-7.1,4.03-12.28,4.03  c-3.05,0-5.74-0.4-8.05-1.18c-2.31-0.79-4.26-1.96-5.83-3.54c-2.04-2.03-3.38-4.56-4.03-7.56c-0.65-3-0.97-6.92-0.97-11.73v-46.91  h-11.66v-2.78h11.66v-18.32c3.89,0,7.47-0.35,10.76-1.04C1810.28,818.78,1813.36,817.65,1816.23,816.08z"></path>	<path class="st4" d="M1856.06,911.56c-4.16,0-7.63-0.79-10.41-2.36s-4.81-3.68-6.11-6.31c-1.3-2.64-1.94-5.53-1.94-8.67  c0-3.98,0.9-7.22,2.71-9.71c1.8-2.5,4.14-4.53,7.01-6.11c2.87-1.57,5.9-2.87,9.09-3.89c3.19-1.02,6.25-2.01,9.16-2.98  c2.91-0.97,5.27-2.13,7.08-3.47c1.8-1.34,2.71-3.08,2.71-5.21v-10.83c0-2.4-0.39-4.56-1.18-6.45c-0.79-1.9-1.99-3.35-3.61-4.37  c-1.62-1.02-3.73-1.53-6.31-1.53c-1.85,0-3.7,0.26-5.55,0.76c-1.85,0.51-3.38,1.37-4.58,2.57c2.59,0.93,4.6,2.34,6.04,4.23  c1.43,1.9,2.15,4.05,2.15,6.45c0,3.15-1.09,5.64-3.26,7.49c-2.17,1.85-4.74,2.78-7.7,2.78c-3.33,0-5.85-1.04-7.56-3.12  c-1.71-2.08-2.57-4.6-2.57-7.56c0-2.68,0.67-4.9,2.01-6.66c1.34-1.76,3.21-3.42,5.62-5c2.59-1.48,5.71-2.64,9.37-3.47  c3.65-0.83,7.61-1.25,11.87-1.25c4.25,0,8.1,0.44,11.52,1.32c3.42,0.88,6.29,2.48,8.6,4.79c2.13,2.13,3.52,4.74,4.16,7.84  c0.65,3.1,0.97,7.01,0.97,11.73v37.75c0,2.31,0.23,3.91,0.69,4.79c0.46,0.88,1.25,1.32,2.36,1.32c0.83,0,1.64-0.23,2.43-0.69  c0.79-0.46,1.64-1.02,2.57-1.67l1.39,2.36c-1.94,1.67-4.19,2.94-6.73,3.82c-2.55,0.88-5.39,1.32-8.54,1.32  c-3.42,0-6.15-0.49-8.19-1.46c-2.04-0.97-3.49-2.29-4.37-3.96c-0.88-1.67-1.32-3.61-1.32-5.83c-2.22,3.52-4.91,6.27-8.05,8.26  C1864.43,910.57,1860.59,911.56,1856.06,911.56z M1865.91,902.68c1.85,0,3.54-0.44,5.07-1.32c1.53-0.88,2.98-2.33,4.37-4.37v-28.45  c-0.83,1.39-1.99,2.64-3.47,3.75c-1.48,1.11-3.05,2.24-4.72,3.4c-1.67,1.16-3.26,2.43-4.79,3.82s-2.75,3.1-3.68,5.13  c-0.93,2.04-1.39,4.49-1.39,7.36c0,3.61,0.79,6.29,2.36,8.05C1861.24,901.8,1863.32,902.68,1865.91,902.68z"></path>	<path class="st4" d="M1937.1,801.92v95.76c0,3.89,0.67,6.52,2.01,7.91c1.34,1.39,3.63,2.08,6.87,2.08v2.91  c-1.76-0.09-4.4-0.21-7.91-0.35c-3.52-0.14-7.08-0.21-10.69-0.21s-7.24,0.07-10.89,0.21c-3.66,0.14-6.41,0.26-8.26,0.35v-2.91  c3.24,0,5.53-0.69,6.87-2.08c1.34-1.39,2.01-4.03,2.01-7.91v-79.11c0-4.16-0.62-7.24-1.87-9.23c-1.25-1.99-3.59-2.98-7.01-2.98  v-2.91c2.96,0.28,5.83,0.42,8.6,0.42c3.79,0,7.4-0.16,10.83-0.49C1931.09,803.06,1934.24,802.57,1937.1,801.92z"></path></g><rect x="481.76" y="1130.22" class="st5" width="1028.78" height="99.44"></rect><g>	<path class="st6" d="M522.71,1152.84c-4.91,6.66-8.41,15.33-8.41,27.57c0,11.97,3.7,20.51,8.41,27.24h-4.57  c-4.24-5.58-8.81-14.19-8.81-27.31c0.07-13.18,4.57-21.86,8.81-27.51H522.71z"></path>	<path class="st6" d="M567.44,1179.61c-0.34-6.32-0.74-13.99-0.74-19.57h-0.13c-1.61,5.25-3.43,10.96-5.72,17.22l-8,21.99h-4.44  l-7.4-21.59c-2.15-6.46-3.9-12.24-5.18-17.62h-0.13c-0.13,5.65-0.47,13.18-0.87,20.04l-1.21,19.44h-5.58l3.16-45.33h7.47  l7.73,21.93c1.88,5.58,3.36,10.56,4.57,15.27h0.13c1.21-4.57,2.82-9.55,4.84-15.27l8.07-21.93h7.47l2.82,45.33h-5.78  L567.44,1179.61z"></path>	<path class="st6" d="M606.38,1191.71c0,2.82,0.13,5.58,0.47,7.8h-5.31l-0.47-4.1h-0.2c-1.82,2.56-5.31,4.84-9.95,4.84  c-6.59,0-9.95-4.64-9.95-9.35c0-7.87,6.99-12.17,19.57-12.11v-0.67c0-2.62-0.74-7.53-7.4-7.47c-3.09,0-6.25,0.87-8.54,2.42  l-1.35-3.97c2.69-1.68,6.66-2.82,10.76-2.82c9.95,0,12.38,6.79,12.38,13.25V1191.71z M600.66,1182.9  c-6.46-0.13-13.79,1.01-13.79,7.33c0,3.9,2.56,5.65,5.52,5.65c4.3,0,7.06-2.69,8-5.45c0.2-0.67,0.27-1.35,0.27-1.88V1182.9z"></path>	<path class="st6" d="M615.93,1175.77c0-3.43-0.07-6.12-0.27-8.81h5.25l0.34,5.38h0.13c1.61-3.03,5.38-6.05,10.76-6.05  c4.51,0,11.5,2.69,11.5,13.85v19.37h-5.92v-18.76c0-5.25-1.95-9.62-7.53-9.62c-3.83,0-6.86,2.76-7.94,6.05  c-0.27,0.74-0.4,1.75-0.4,2.76v19.57h-5.92V1175.77z"></path>	<path class="st6" d="M676.12,1191.71c0,2.82,0.13,5.58,0.47,7.8h-5.31l-0.47-4.1h-0.2c-1.82,2.56-5.31,4.84-9.95,4.84  c-6.59,0-9.95-4.64-9.95-9.35c0-7.87,6.99-12.17,19.57-12.11v-0.67c0-2.62-0.74-7.53-7.4-7.47c-3.09,0-6.25,0.87-8.54,2.42  l-1.35-3.97c2.69-1.68,6.66-2.82,10.76-2.82c9.95,0,12.38,6.79,12.38,13.25V1191.71z M670.4,1182.9  c-6.46-0.13-13.79,1.01-13.79,7.33c0,3.9,2.56,5.65,5.52,5.65c4.3,0,7.06-2.69,8-5.45c0.2-0.67,0.27-1.35,0.27-1.88V1182.9z"></path>	<path class="st6" d="M713.51,1194.74c0,7.53-1.55,12.04-4.64,14.93c-3.23,2.89-7.8,3.9-11.9,3.9c-3.9,0-8.21-0.94-10.83-2.69  l1.48-4.57c2.15,1.41,5.51,2.62,9.55,2.62c6.05,0,10.49-3.16,10.49-11.43v-3.56h-0.13c-1.75,3.03-5.31,5.45-10.36,5.45  c-8.07,0-13.85-6.86-13.85-15.87c0-11.03,7.2-17.22,14.73-17.22c5.65,0,8.68,2.89,10.16,5.58h0.13l0.2-4.91h5.25  c-0.2,2.29-0.27,4.98-0.27,8.88V1194.74z M707.59,1179.81c0-1.01-0.07-1.88-0.34-2.62c-1.08-3.5-3.9-6.32-8.27-6.32  c-5.65,0-9.68,4.78-9.68,12.31c0,6.39,3.3,11.7,9.62,11.7c3.7,0,6.99-2.29,8.21-6.05c0.34-1.01,0.47-2.15,0.47-3.16V1179.81z"></path>	<path class="st6" d="M726.56,1184.32c0.13,8,5.18,11.3,11.16,11.3c4.24,0,6.86-0.74,9.01-1.68l1.08,4.24  c-2.08,0.94-5.72,2.08-10.9,2.08c-10.02,0-16.01-6.66-16.01-16.48c0-9.82,5.78-17.49,15.27-17.49c10.69,0,13.45,9.28,13.45,15.27  c0,1.21-0.07,2.08-0.2,2.76H726.56z M743.91,1180.08c0.07-3.7-1.55-9.55-8.21-9.55c-6.05,0-8.61,5.45-9.08,9.55H743.91z"></path>	<path class="st6" d="M785,1151.76v39.34c0,2.89,0.13,6.19,0.27,8.41h-5.25l-0.27-5.65h-0.2c-1.75,3.63-5.65,6.39-10.96,6.39  c-7.87,0-13.99-6.66-13.99-16.55c-0.07-10.83,6.73-17.42,14.59-17.42c5.04,0,8.34,2.35,9.82,4.91h0.13v-19.44H785z M779.15,1180.21  c0-0.74-0.07-1.75-0.27-2.49c-0.87-3.7-4.1-6.79-8.54-6.79c-6.12,0-9.75,5.38-9.75,12.51c0,6.59,3.3,12.04,9.62,12.04  c3.97,0,7.6-2.69,8.68-7.06c0.2-0.81,0.27-1.61,0.27-2.56V1180.21z"></path>	<path class="st6" d="M809.15,1151.76H815v20.45h0.13c2.09-3.63,5.85-5.92,11.1-5.92c8.14,0,13.79,6.73,13.79,16.55  c0,11.64-7.4,17.42-14.66,17.42c-4.71,0-8.47-1.82-10.96-6.05h-0.13l-0.34,5.31h-5.04c0.13-2.22,0.27-5.51,0.27-8.41V1151.76z   M815,1186.47c0,0.74,0.07,1.48,0.27,2.15c1.08,4.1,4.57,6.93,8.88,6.93c6.25,0,9.89-5.04,9.89-12.51c0-6.52-3.36-12.11-9.75-12.11  c-3.97,0-7.73,2.82-8.94,7.26c-0.2,0.74-0.34,1.55-0.34,2.49V1186.47z"></path>	<path class="st6" d="M849.1,1166.96l7.06,19.24c0.81,2.15,1.61,4.71,2.15,6.66h0.13c0.61-1.95,1.28-4.44,2.08-6.79l6.46-19.1h6.25  l-8.88,23.2c-4.24,11.16-7.13,16.81-11.16,20.38c-2.96,2.49-5.78,3.5-7.26,3.77l-1.48-4.91c1.48-0.47,3.43-1.41,5.18-2.89  c1.61-1.28,3.56-3.56,4.98-6.59c0.27-0.61,0.47-1.08,0.47-1.41c0-0.34-0.13-0.81-0.47-1.55l-11.97-30H849.1z"></path>	<path class="st6" d="M900.41,1185.26l-4.71,14.26h-6.05l15.47-45.33h6.99l15.47,45.33h-6.25l-4.84-14.26H900.41z M915.34,1180.68  l-4.51-13.05c-1.01-2.96-1.68-5.65-2.35-8.27h-0.13c-0.67,2.62-1.35,5.45-2.29,8.2l-4.44,13.12H915.34z"></path>	<path class="st6" d="M934.91,1166.96l6.39,18.23c1.08,3.03,1.95,5.72,2.62,8.41h0.2c0.74-2.69,1.68-5.38,2.76-8.41l6.32-18.23h6.19  l-12.78,32.55h-5.65l-12.37-32.55H934.91z"></path>	<path class="st6" d="M971.57,1157.82c0,2.02-1.41,3.63-3.77,3.63c-2.15,0-3.56-1.61-3.56-3.63c0-2.02,1.48-3.7,3.7-3.7  C970.09,1154.12,971.57,1155.73,971.57,1157.82z M964.98,1199.52v-32.55h5.92v32.55H964.98z"></path>	<path class="st6" d="M979.91,1193.53c1.82,1.08,4.91,2.29,7.87,2.29c4.24,0,6.25-2.08,6.25-4.84c0-2.82-1.68-4.3-5.99-5.92  c-5.92-2.15-8.68-5.31-8.68-9.21c0-5.25,4.3-9.55,11.23-9.55c3.3,0,6.19,0.87,7.94,2.02l-1.41,4.3c-1.28-0.81-3.63-1.95-6.66-1.95  c-3.5,0-5.38,2.02-5.38,4.44c0,2.69,1.88,3.9,6.12,5.58c5.58,2.08,8.54,4.91,8.54,9.75c0,5.78-4.51,9.82-12.11,9.82  c-3.56,0-6.86-0.94-9.15-2.29L979.91,1193.53z"></path>	<path class="st6" d="M1007.35,1151.76h5.92v20.38h0.13c0.94-1.68,2.42-3.23,4.24-4.24c1.75-1.01,3.83-1.61,6.05-1.61  c4.37,0,11.37,2.69,11.37,13.85v19.37h-5.92v-18.7c0-5.25-1.95-9.62-7.53-9.62c-3.83,0-6.79,2.69-7.94,5.85  c-0.34,0.87-0.4,1.75-0.4,2.82v19.64h-5.92V1151.76z"></path>	<path class="st6" d="M1050.52,1181.89h0.13c0.81-1.14,1.88-2.56,2.82-3.7l9.62-11.23h7.06l-12.51,13.38l14.33,19.17h-7.26  l-11.16-15.6l-3.03,3.36v12.24h-5.85v-47.75h5.85V1181.89z"></path>	<path class="st6" d="M1100.29,1191.71c0,2.82,0.13,5.58,0.47,7.8h-5.31l-0.47-4.1h-0.2c-1.82,2.56-5.31,4.84-9.95,4.84  c-6.59,0-9.95-4.64-9.95-9.35c0-7.87,6.99-12.17,19.57-12.11v-0.67c0-2.62-0.74-7.53-7.4-7.47c-3.09,0-6.26,0.87-8.54,2.42  l-1.35-3.97c2.69-1.68,6.66-2.82,10.76-2.82c9.95,0,12.38,6.79,12.38,13.25V1191.71z M1094.58,1182.9  c-6.46-0.13-13.79,1.01-13.79,7.33c0,3.9,2.56,5.65,5.52,5.65c4.3,0,7.06-2.69,8-5.45c0.2-0.67,0.27-1.35,0.27-1.88V1182.9z"></path>	<path class="st6" d="M1130.15,1154.18v18.97h21.93v-18.97h5.92v45.33h-5.92v-21.25h-21.93v21.25h-5.92v-45.33H1130.15z"></path>	<path class="st6" d="M1197.41,1182.97c0,12.04-8.41,17.28-16.21,17.28c-8.74,0-15.6-6.46-15.6-16.75c0-10.83,7.2-17.22,16.14-17.22  C1191.09,1166.29,1197.41,1173.08,1197.41,1182.97z M1171.65,1183.31c0,7.13,4.04,12.51,9.82,12.51c5.65,0,9.89-5.31,9.89-12.64  c0-5.52-2.76-12.44-9.75-12.44C1174.68,1170.73,1171.65,1177.19,1171.65,1183.31z"></path>	<path class="st6" d="M1204.07,1193.53c1.82,1.08,4.91,2.29,7.87,2.29c4.24,0,6.26-2.08,6.26-4.84c0-2.82-1.68-4.3-5.99-5.92  c-5.92-2.15-8.68-5.31-8.68-9.21c0-5.25,4.3-9.55,11.23-9.55c3.3,0,6.19,0.87,7.94,2.02l-1.41,4.3c-1.28-0.81-3.63-1.95-6.66-1.95  c-3.5,0-5.38,2.02-5.38,4.44c0,2.69,1.88,3.9,6.12,5.58c5.58,2.08,8.54,4.91,8.54,9.75c0,5.78-4.51,9.82-12.11,9.82  c-3.56,0-6.86-0.94-9.15-2.29L1204.07,1193.53z"></path>	<path class="st6" d="M1231.51,1177.59c0-4.17-0.13-7.53-0.27-10.63h5.25l0.34,5.58h0.13c2.35-3.97,6.25-6.25,11.57-6.25  c7.94,0,13.85,6.66,13.85,16.48c0,11.7-7.2,17.49-14.86,17.49c-4.3,0-8.07-1.88-10.02-5.11h-0.13v17.69h-5.85V1177.59z   M1237.36,1186.27c0,0.87,0.07,1.68,0.27,2.42c1.08,4.1,4.64,6.93,8.88,6.93c6.25,0,9.89-5.11,9.89-12.58  c0-6.46-3.43-12.04-9.68-12.04c-4.04,0-7.87,2.82-8.95,7.26c-0.2,0.74-0.4,1.61-0.4,2.35V1186.27z"></path>	<path class="st6" d="M1276.37,1157.82c0,2.02-1.41,3.63-3.77,3.63c-2.15,0-3.56-1.61-3.56-3.63c0-2.02,1.48-3.7,3.7-3.7  C1274.89,1154.12,1276.37,1155.73,1276.37,1157.82z M1269.77,1199.52v-32.55h5.92v32.55H1269.77z"></path>	<path class="st6" d="M1292.64,1159.16v7.8h8.47v4.51h-8.47v17.55c0,4.04,1.14,6.32,4.44,6.32c1.61,0,2.56-0.13,3.43-0.4l0.27,4.51  c-1.14,0.4-2.96,0.81-5.25,0.81c-2.76,0-4.98-0.94-6.39-2.49c-1.61-1.82-2.29-4.71-2.29-8.54v-17.76h-5.04v-4.51h5.04v-6.05  L1292.64,1159.16z"></path>	<path class="st6" d="M1330.64,1191.71c0,2.82,0.13,5.58,0.47,7.8h-5.31l-0.47-4.1h-0.2c-1.82,2.56-5.31,4.84-9.95,4.84  c-6.59,0-9.95-4.64-9.95-9.35c0-7.87,6.99-12.17,19.57-12.11v-0.67c0-2.62-0.74-7.53-7.4-7.47c-3.09,0-6.25,0.87-8.54,2.42  l-1.35-3.97c2.69-1.68,6.66-2.82,10.76-2.82c9.95,0,12.38,6.79,12.38,13.25V1191.71z M1324.92,1182.9  c-6.46-0.13-13.79,1.01-13.79,7.33c0,3.9,2.56,5.65,5.51,5.65c4.3,0,7.06-2.69,8-5.45c0.2-0.67,0.27-1.35,0.27-1.88V1182.9z"></path>	<path class="st6" d="M1340.19,1151.76h5.92v47.75h-5.92V1151.76z"></path>	<path class="st6" d="M1370.45,1154.18h5.92v40.42h19.37v4.91h-25.29V1154.18z"></path>	<path class="st6" d="M1402.2,1154.18h5.92v40.42h19.37v4.91h-25.29V1154.18z"></path>	<path class="st6" d="M1434.01,1154.72c2.82-0.47,6.52-0.87,11.23-0.87c5.78,0,10.02,1.35,12.71,3.77c2.42,2.15,3.97,5.45,3.97,9.48  c0,4.1-1.21,7.33-3.5,9.68c-3.16,3.3-8.14,4.98-13.85,4.98c-1.75,0-3.36-0.07-4.71-0.4v18.16h-5.85V1154.72z M1439.86,1176.58  c1.28,0.34,2.89,0.47,4.84,0.47c7.06,0,11.37-3.5,11.37-9.62c0-6.05-4.3-8.94-10.69-8.94c-2.56,0-4.51,0.2-5.51,0.47V1176.58z"></path>	<path class="st6" d="M1466.02,1207.65c4.71-6.66,8.41-15.33,8.41-27.44c0-12.11-3.63-20.65-8.41-27.37h4.57  c4.24,5.51,8.81,14.19,8.81,27.37c-0.07,13.18-4.57,21.79-8.81,27.44H1466.02z"></path></g><g></g><g></g><g></g><g></g><g></g><g></g></svg>